<svg width="243" height="240" viewBox="0 0 243 240" fill="none" xmlns="http://www.w3.org/2000/svg">
<path d="M37.9067 158.626C33.6587 158.626 29.506 157.366 25.9739 155.006C22.4418 152.646 19.6888 149.291 18.0632 145.367C16.4375 141.442 16.0122 137.123 16.8409 132.957C17.6697 128.791 19.7153 124.963 22.7191 121.96C25.7229 118.956 29.55 116.91 33.7165 116.081C37.8829 115.253 42.2015 115.678 46.1261 117.304C50.0508 118.929 53.4053 121.682 55.7654 125.214C58.1255 128.747 59.3851 132.899 59.3851 137.147C59.3851 142.844 57.1222 148.307 53.0943 152.335C49.0663 156.363 43.6031 158.626 37.9067 158.626ZM37.9067 116.667C33.8513 116.666 29.8866 117.868 26.5141 120.12C23.1416 122.372 20.5128 125.574 18.96 129.32C17.4073 133.067 17.0005 137.189 17.7909 141.167C18.5814 145.144 20.5337 148.798 23.4009 151.666C26.2681 154.534 29.9214 156.488 33.8988 157.279C37.8762 158.071 41.999 157.665 45.7458 156.114C49.4926 154.562 52.6951 151.934 54.9483 148.562C57.2015 145.19 58.4041 141.226 58.4041 137.17C58.398 131.736 56.2366 126.525 52.3941 122.681C48.5516 118.838 43.3416 116.675 37.9067 116.667Z" fill="#EBEBEB"/>
<path d="M36.8269 161.662C36.5018 161.662 36.1767 161.627 35.8516 161.604L35.9329 160.652C36.2406 160.652 36.554 160.698 36.8675 160.71L36.8269 161.662ZM40.2402 161.575L40.1473 160.628C40.4608 160.599 40.7685 160.559 41.0819 160.518L41.2096 161.464C40.8904 161.511 40.5711 161.546 40.2402 161.575ZM32.4731 161.081C32.1539 161.012 31.8404 160.93 31.5211 160.849L31.7707 159.926C32.0726 160.007 32.3803 160.083 32.6821 160.152L32.4731 161.081ZM44.5649 160.774L44.3037 159.851C44.6056 159.769 44.8842 159.676 45.2035 159.578L45.4995 160.489L44.5649 160.774ZM28.311 159.729C28.0091 159.601 27.7305 159.467 27.417 159.328L27.8233 158.463C28.1078 158.602 28.4038 158.73 28.6825 158.852L28.311 159.729ZM48.6807 159.206L48.2627 158.347C48.5472 158.208 48.8432 158.068 49.0986 157.917L49.5514 158.759C49.2496 158.91 48.9593 159.061 48.6632 159.206H48.6807ZM24.439 157.65C24.1662 157.47 23.8934 157.285 23.6321 157.07L24.2126 156.292C24.4623 156.478 24.7235 156.658 24.9847 156.826L24.439 157.65ZM52.4365 156.931L51.856 156.159L52.599 155.578L53.1795 156.321C52.9183 156.536 52.6803 156.739 52.4191 156.931H52.4365ZM20.9909 154.91C20.7529 154.684 20.5207 154.458 20.2943 154.22L20.9909 153.558C21.2115 153.784 21.4321 154.005 21.6584 154.22L20.9909 154.91ZM55.7163 154.022L55.0255 153.366C55.2403 153.14 55.4493 152.908 55.6583 152.67L56.3723 153.297C56.1517 153.546 55.9369 153.784 55.7105 154.022H55.7163ZM18.0884 151.607C17.8968 151.346 17.7111 151.079 17.5079 150.806L18.3032 150.278C18.4773 150.534 18.6573 150.795 18.843 151.044L18.0884 151.607ZM58.433 150.586L57.6378 150.063C57.8061 149.802 57.9745 149.535 58.137 149.268L58.9555 149.756C58.7871 150.005 58.613 150.301 58.433 150.586ZM15.8302 147.857C15.6851 147.561 15.5516 147.277 15.4181 146.969L16.2946 146.586C16.4224 146.876 16.5501 147.167 16.6836 147.439L15.8302 147.857ZM60.5286 146.696L59.6521 146.325C59.774 146.035 59.8901 145.744 60.0004 145.448L60.8944 145.785C60.7492 146.093 60.6273 146.395 60.4996 146.696H60.5286ZM14.3035 143.736C14.2165 143.422 14.141 143.109 14.0655 142.79L14.9943 142.569C15.064 142.877 15.1394 143.179 15.2265 143.48L14.3035 143.736ZM61.8638 142.505L60.935 142.296C61.0047 141.994 61.0627 141.687 61.1208 141.379L62.0612 141.547C61.9741 141.878 61.9102 142.186 61.8348 142.505H61.8638ZM13.5199 139.417C13.4889 139.092 13.4657 138.767 13.4502 138.442L14.3732 138.395C14.3732 138.709 14.3964 139.022 14.4428 139.336L13.5199 139.417ZM62.4269 138.146L61.4749 138.111C61.4749 137.797 61.4749 137.484 61.4749 137.17V137.072H62.4327V137.165C62.4211 137.501 62.4153 137.815 62.3979 138.146H62.4269ZM14.4312 135.104L13.4792 135.023C13.4792 134.698 13.5431 134.372 13.5837 134.053L14.5299 134.169C14.4951 134.483 14.4603 134.79 14.4312 135.104ZM61.2252 133.798C61.1788 133.49 61.1324 133.177 61.0743 132.875L62.0147 132.701C62.0728 133.02 62.125 133.339 62.1715 133.664L61.2252 133.798ZM15.1859 130.947L14.2629 130.698C14.3519 130.384 14.4448 130.071 14.5415 129.757L15.4529 130.048C15.3426 130.344 15.2555 130.646 15.1859 130.947ZM60.2558 129.688C60.1513 129.386 60.0468 129.107 59.9365 128.8L60.8305 128.463C60.9466 128.765 61.0569 129.072 61.1614 129.38L60.2558 129.688ZM16.6487 126.988L15.7664 126.582C15.9057 126.286 16.0508 126.002 16.2076 125.706L17.0493 126.153C16.9274 126.431 16.7823 126.71 16.6487 126.994V126.988ZM58.5608 125.827C58.4098 125.555 58.2531 125.282 58.0906 125.015L58.9091 124.521C59.0774 124.8 59.2399 125.102 59.3967 125.369L58.5608 125.827ZM18.8082 123.366L18.0361 122.786C18.2277 122.524 18.4251 122.263 18.6166 122.008L19.3655 122.588C19.1855 122.861 18.994 123.111 18.8082 123.366ZM56.2039 122.327C56.0066 122.083 55.8131 121.845 55.6234 121.613L56.3432 120.98C56.558 121.224 56.767 121.474 56.9702 121.723L56.2039 122.327ZM21.5714 120.179L20.9096 119.488C21.1476 119.262 21.3856 119.041 21.6294 118.827L22.2622 119.541C22.0416 119.75 21.8094 119.959 21.5714 120.179ZM53.2492 119.303C53.0112 119.094 52.7674 118.896 52.5236 118.722L53.1041 117.973C53.3595 118.177 53.6091 118.38 53.8587 118.594L53.2492 119.303ZM24.8628 117.561L24.3345 116.766L25.1589 116.238L25.6581 117.056C25.4027 117.195 25.1356 117.364 24.8744 117.538L24.8628 117.561ZM49.8242 116.865L49.0057 116.406L49.4527 115.564C49.743 115.721 50.0332 115.878 50.3061 116.046L49.8242 116.865ZM28.5838 115.524L28.2065 114.647C28.5025 114.519 28.787 114.397 29.1062 114.281L29.4545 115.17C29.1585 115.286 28.8682 115.402 28.5838 115.524ZM45.9988 115.042C45.7027 114.932 45.4183 114.833 45.1048 114.734L45.4009 113.823C45.7085 113.927 46.022 114.032 46.3238 114.142L45.9988 115.042ZM32.6008 114.212L32.3861 113.283C32.6995 113.207 33.0188 113.144 33.3439 113.08L33.518 114.02C33.1814 114.078 32.8969 114.142 32.6008 114.212ZM41.9295 113.95C41.6218 113.898 41.3141 113.852 41.0007 113.811L41.1226 112.865C41.4477 112.906 41.7727 112.958 42.092 113.01L41.9295 113.95ZM36.7804 113.637L36.734 112.685C37.0591 112.685 37.3842 112.685 37.715 112.656V113.614C37.4016 113.614 37.0881 113.62 36.7746 113.637H36.7804Z" fill="#EBEBEB"/>
<path d="M34.6151 150.441H41.2269V140.468H51.1999V133.856H41.2269V123.883H34.6151V133.856H24.6421V140.468H34.6151V150.441Z" fill="#EBEBEB"/>
<path d="M218.262 49.2249C214.683 54.0095 210.118 57.9689 204.875 60.8348C199.645 57.9656 195.092 54.0063 191.524 49.2249C186.81 42.9903 187.042 33.2263 193.782 31.1133C201.236 28.7913 204.899 40.0007 204.899 40.0007C204.899 40.0007 208.614 28.71 216.021 31.1133C222.714 33.325 222.97 42.9903 218.262 49.2249Z" fill="#EBEBEB"/>
<path d="M199.622 55.9064L197.59 47.4485L196.261 50.4323H188.058V49.4745H195.645L197.857 44.488L199.442 51.0825L201.683 37.4175L203.662 48.2264L205.224 43.7159L207.685 51.1057L208.231 49.4745H221.71V50.4265H208.921L207.685 54.1185L205.206 46.6823L203.372 51.9764L201.735 43.0077L199.622 55.9064Z" fill="white"/>
<path d="M204.899 64.8461C200.651 64.8461 196.498 63.5864 192.966 61.2263C189.434 58.8662 186.681 55.5118 185.055 51.5871C183.43 47.6624 183.004 43.3438 183.833 39.1774C184.662 35.011 186.707 31.1839 189.711 28.1801C192.715 25.1762 196.542 23.1306 200.709 22.3019C204.875 21.4731 209.194 21.8985 213.118 23.5241C217.043 25.1498 220.397 27.9027 222.757 31.4348C225.118 34.967 226.377 39.1196 226.377 43.3676C226.377 49.0641 224.114 54.5272 220.086 58.5552C216.058 62.5832 210.595 64.8461 204.899 64.8461ZM204.899 22.8876C200.844 22.8876 196.88 24.0901 193.508 26.343C190.136 28.596 187.508 31.7981 185.956 35.5446C184.404 39.2911 183.998 43.4136 184.79 47.3908C185.581 51.3681 187.533 55.0214 190.401 57.8888C193.268 60.7562 196.922 62.709 200.899 63.5001C204.876 64.2912 208.999 63.8852 212.745 62.3333C216.491 60.7815 219.694 58.1536 221.947 54.7818C224.199 51.4101 225.402 47.446 225.402 43.3908C225.4 37.9525 223.24 32.7371 219.396 28.8905C215.551 25.0439 210.337 22.8806 204.899 22.876V22.8876Z" fill="#EBEBEB"/>
<path d="M203.848 67.8821C203.523 67.8821 203.198 67.8473 202.873 67.8182L202.954 66.8662C203.262 66.8953 203.575 66.9127 203.894 66.9301L203.848 67.8821ZM207.267 67.795L207.174 66.843C207.488 66.814 207.801 66.7792 208.109 66.7385L208.237 67.6847C207.911 67.7254 207.563 67.766 207.238 67.795H207.267ZM199.494 67.3016C199.175 67.2319 198.861 67.1507 198.548 67.0694L198.792 66.1464C199.094 66.2277 199.401 66.3031 199.709 66.3728L199.494 67.3016ZM211.586 66.9881L211.325 66.0709C211.627 65.9839 211.905 65.8968 212.225 65.7981L212.521 66.7095C212.184 66.8082 211.87 66.9011 211.557 66.9939L211.586 66.9881ZM195.332 65.949C195.03 65.8213 194.752 65.6878 194.438 65.5485L194.844 64.6836L195.704 65.0725L195.332 65.949ZM215.708 65.4208L215.29 64.5616C215.568 64.4281 215.87 64.283 216.12 64.1379L216.573 64.9738C216.242 65.1305 215.951 65.2815 215.661 65.4208H215.708ZM191.46 63.8651C191.187 63.6851 190.92 63.4993 190.653 63.2846L191.234 62.5067C191.489 62.6924 191.745 62.8666 192.006 63.0407L191.46 63.8651ZM219.458 63.1452L218.877 62.379C219.133 62.1932 219.376 62.0017 219.62 61.7985L220.201 62.5473C219.934 62.7563 219.678 62.9304 219.411 63.1452H219.458ZM188.024 61.1309C187.786 60.9045 187.553 60.6723 187.327 60.4401L188.018 59.7783C188.234 59.9989 188.455 60.2195 188.68 60.4401L188.024 61.1309ZM222.749 60.2427L222.058 59.581C222.273 59.3546 222.482 59.1224 222.691 58.8902L223.411 59.5171C223.15 59.7609 222.929 60.028 222.703 60.2427H222.749ZM185.127 57.8279C184.935 57.5608 184.75 57.2996 184.546 57.0268L185.336 56.4927C185.51 56.7539 185.69 57.0094 185.876 57.2648L185.127 57.8279ZM225.477 56.7946L224.676 56.2721C224.845 56.0051 225.013 55.7439 225.175 55.471L225.994 55.9645C225.779 56.2431 225.605 56.545 225.431 56.7946H225.477ZM182.869 54.0604C182.724 53.7702 182.59 53.4799 182.462 53.1781L183.333 52.7949C183.461 53.0794 183.589 53.3754 183.728 53.6483L182.869 54.0604ZM227.567 52.8994L226.691 52.5279C226.813 52.2435 226.929 51.9474 227.039 51.6572L227.933 51.9939C227.741 52.3073 227.648 52.615 227.492 52.911L227.567 52.8994ZM181.348 49.9447C181.261 49.6312 181.179 49.3119 181.104 48.9985L182.033 48.7779C182.102 49.0856 182.184 49.3874 182.265 49.6893L181.348 49.9447ZM228.809 48.7256L227.875 48.5167C227.944 48.209 228.008 47.9013 228.061 47.5937L229.001 47.762C228.966 48.0871 228.902 48.418 228.809 48.7256ZM180.46 45.6316C180.429 45.3104 180.405 44.9853 180.39 44.6563L181.342 44.6099C181.342 44.9234 181.383 45.2368 181.412 45.5445L180.46 45.6316ZM229.39 44.3545L228.432 44.3197C228.432 44.0062 228.432 43.6927 228.432 43.3792V43.2806H229.39V43.3734C229.39 43.7159 229.39 44.041 229.39 44.3545ZM181.417 41.3127L180.471 41.2314C180.471 40.9063 180.529 40.5812 180.57 40.2562L181.522 40.3781C181.487 40.6973 181.452 41.0108 181.423 41.3243L181.417 41.3127ZM228.229 40.0182C228.188 39.7047 228.136 39.397 228.078 39.0894L229.018 38.9152C229.076 39.2345 229.129 39.5596 229.175 39.8788L228.229 40.0182ZM182.178 37.1679L181.255 36.9183C181.342 36.599 181.435 36.2914 181.534 35.9779L182.445 36.2681C182.37 36.5642 182.248 36.8661 182.166 37.1679H182.178ZM227.259 35.9082C227.161 35.6122 227.051 35.3277 226.94 35.0259L227.834 34.6834C227.95 34.993 228.061 35.3006 228.165 35.6064L227.259 35.9082ZM183.652 33.2089L182.793 32.7968C182.933 32.5007 183.084 32.2163 183.234 31.926L184.076 32.373C183.919 32.6458 183.78 32.9303 183.641 33.2089H183.652ZM225.564 32.0479C225.414 31.7693 225.257 31.5022 225.094 31.2352L225.913 30.7418C226.081 31.0146 226.244 31.3223 226.4 31.5835L225.564 32.0479ZM185.818 29.5808L185.04 29.0003C185.233 28.7333 185.427 28.472 185.62 28.2166L186.369 28.7971C186.178 29.0758 185.986 29.3312 185.806 29.5808H185.818ZM223.208 28.5475C223.01 28.3037 222.807 28.0657 222.598 27.8277L223.318 27.2007C223.533 27.4446 223.742 27.6884 223.945 27.9438L223.208 28.5475ZM188.587 26.3939L187.925 25.7089C188.163 25.4825 188.401 25.2619 188.645 25.0471L189.266 25.7785C189.034 25.9701 188.801 26.1791 188.575 26.3939H188.587ZM220.264 25.5173C220.026 25.3141 219.783 25.1168 219.539 24.9368L220.119 24.188C220.375 24.3911 220.624 24.6001 220.874 24.8149L220.264 25.5173ZM191.884 23.7758L191.35 22.9863C191.623 22.8006 191.896 22.6264 192.174 22.4581L192.673 23.2766C192.395 23.4159 192.128 23.5842 191.872 23.7526L191.884 23.7758ZM216.845 23.085C216.578 22.9283 216.305 22.7715 216.027 22.6264L216.474 21.7847C216.764 21.9356 217.054 22.0982 217.327 22.2607L216.845 23.085ZM195.605 21.7673L195.228 20.8907C195.522 20.763 195.824 20.6411 196.133 20.525L196.476 21.4132C196.151 21.5003 195.866 21.6222 195.576 21.7441L195.605 21.7673ZM213.02 21.2797C212.724 21.1752 212.439 21.0707 212.132 20.9778L212.422 20.0664C212.735 20.1651 213.043 20.2696 213.351 20.3857L213.02 21.2797ZM199.61 20.4554L199.396 19.5207C199.709 19.4511 200.028 19.3814 200.353 19.3234L200.528 20.258C200.197 20.2928 199.889 20.3625 199.587 20.4321L199.61 20.4554ZM208.939 20.1941C208.631 20.1419 208.324 20.0954 208.01 20.0548L208.132 19.1086C208.457 19.1492 208.782 19.1957 209.101 19.2537L208.939 20.1941ZM203.79 19.8807L203.749 18.9228C204.069 18.9228 204.394 18.9228 204.725 18.9228V19.8749C204.394 19.8342 204.08 19.84 203.767 19.8574L203.79 19.8807Z" fill="#EBEBEB"/>
<path d="M61.8652 40.3638C65.8175 25.976 57.3578 11.1084 42.97 7.15619C28.5822 3.20394 13.7146 11.6636 9.76239 26.0514C5.81014 40.4392 14.2698 55.3067 28.6576 59.259C43.0454 63.2113 57.9129 54.7516 61.8652 40.3638Z" fill="#EBEBEB"/>
<path d="M46.7848 57.688C59.9691 52.3129 66.2998 37.2676 60.9247 24.0833C55.5497 10.899 40.5044 4.56835 27.3201 9.9434C14.1357 15.3184 7.80509 30.3638 13.1801 43.5481C18.5552 56.7324 33.6005 63.063 46.7848 57.688Z" fill="#DBDBDB"/>
<path d="M37.0533 57.9614C50.3903 57.9614 61.202 47.1496 61.202 33.8126C61.202 20.4756 50.3903 9.66388 37.0533 9.66388C23.7163 9.66388 12.9045 20.4756 12.9045 33.8126C12.9045 47.1496 23.7163 57.9614 37.0533 57.9614Z" fill="white"/>
<path opacity="0.5" d="M60.6622 28.681C49.6327 35.3451 31.585 46.2759 21.4843 52.2667C18.6291 49.8591 16.37 46.8231 14.884 43.3967L48.2743 12.427C51.4007 14.0675 54.1299 16.3728 56.27 19.1808C58.4101 21.9889 59.9093 25.2316 60.6622 28.681Z" fill="#EBEBEB"/>
<path opacity="0.5" d="M61.1904 34.6543C61.103 37.3416 60.5633 39.9948 59.594 42.5027L29.4719 56.7481C28.1591 56.3172 26.8867 55.7713 25.6697 55.1169C34.7661 49.8576 51.3916 40.291 61.1904 34.6543Z" fill="#EBEBEB"/>
<path d="M37.2854 11.417H36.821V15.0799H37.2854V11.417Z" fill="#C7C7C7"/>
<path d="M26.0562 14.2938L25.6541 14.526L27.4855 17.6982L27.8877 17.466L26.0562 14.2938Z" fill="#C7C7C7"/>
<path d="M17.7708 22.4066L17.5386 22.8088L20.7108 24.6403L20.943 24.2381L17.7708 22.4066Z" fill="#C7C7C7"/>
<path d="M18.3207 33.5804H14.6577V34.0448H18.3207V33.5804Z" fill="#C7C7C7"/>
<path d="M20.7115 42.9775L17.5393 44.809L17.7715 45.2111L20.9437 43.3797L20.7115 42.9775Z" fill="#C7C7C7"/>
<path d="M27.485 49.9167L25.6558 53.0902L26.0581 53.3221L27.8874 50.1486L27.485 49.9167Z" fill="#C7C7C7"/>
<path d="M37.2854 52.5511H36.821V56.2141H37.2854V52.5511Z" fill="#C7C7C7"/>
<path d="M46.6224 49.9207L46.2202 50.1529L48.0517 53.3251L48.4539 53.0929L46.6224 49.9207Z" fill="#C7C7C7"/>
<path d="M53.6658 42.6645L53.4336 43.0686L56.6204 44.9L56.8526 44.496L53.6658 42.6645Z" fill="#C7C7C7"/>
<path d="M59.4547 33.5804H55.7917V34.0448H59.4547V33.5804Z" fill="#C7C7C7"/>
<path d="M56.3385 22.4172L53.1663 24.2487L53.3985 24.6509L56.5707 22.8194L56.3385 22.4172Z" fill="#C7C7C7"/>
<path d="M48.0518 14.2974L46.2214 17.4702L46.6237 17.7023L48.4541 14.5294L48.0518 14.2974Z" fill="#C7C7C7"/>
<path d="M37.4074 13.0714L38.2026 35.4438L35.9097 35.4148L36.7862 13.0656L37.4074 13.0714Z" fill="#C7C7C7"/>
<path d="M51.3395 26.0107L36.2929 35.618L35.1958 33.6037L51.0434 25.4651L51.3395 26.0107Z" fill="#A6A6A6"/>
<path d="M37.8252 33.8126C37.8252 33.9676 37.7792 34.1191 37.6931 34.248C37.607 34.3769 37.4846 34.4773 37.3414 34.5367C37.1982 34.596 37.0406 34.6115 36.8886 34.5813C36.7366 34.551 36.5969 34.4764 36.4873 34.3668C36.3777 34.2572 36.3031 34.1175 36.2729 33.9655C36.2426 33.8135 36.2582 33.6559 36.3175 33.5127C36.3768 33.3695 36.4772 33.2471 36.6061 33.161C36.735 33.0749 36.8865 33.029 37.0415 33.029C37.2493 33.029 37.4487 33.1115 37.5956 33.2585C37.7426 33.4055 37.8252 33.6048 37.8252 33.8126Z" fill="#C7C7C7"/>
<path d="M24.2358 163.972L16.6197 164.129L12.7536 164.198C11.4591 164.198 10.1587 164.198 8.86422 164.228H8.6088V163.972L8.57397 157.476V157.18H8.86422L16.55 157.215C19.1158 157.215 21.6758 157.279 24.2358 157.308H24.3984V157.465C24.3984 158.562 24.3461 159.659 24.3229 160.745L24.2358 163.972ZM24.2358 163.972L24.1546 160.686C24.1546 159.607 24.0907 158.539 24.0791 157.476L24.2358 157.633C21.6758 157.662 19.1158 157.726 16.55 157.726L8.86422 157.767L9.15447 157.476V163.972L8.89325 163.711C10.1587 163.711 11.4242 163.711 12.6955 163.74L16.5152 163.81L24.2358 163.972Z" fill="#EBEBEB"/>
<path d="M15.6619 172.163L8.04571 172.32L4.17959 172.389C2.88508 172.389 1.58476 172.389 0.290249 172.418H0.0348307V172.163L0 165.679V165.383H0.290249L7.97606 165.418C10.5361 165.418 13.1019 165.481 15.6619 165.51H15.8244V165.679C15.8244 166.776 15.778 167.873 15.7489 168.959L15.6619 172.163ZM15.6619 172.163L15.5806 168.877C15.5516 167.798 15.5167 166.729 15.5051 165.667L15.6619 165.824C13.1019 165.853 10.5361 165.917 7.97606 165.917L0.290249 165.952L0.580499 165.667L0.551474 172.163L0.290249 171.902C1.55574 171.902 2.82122 171.902 4.09252 171.902L7.9122 171.971L15.6619 172.163Z" fill="#EBEBEB"/>
<path d="M172.849 91.6593L165.227 91.8219L161.361 91.8857C160.073 91.9148 158.772 91.8857 157.478 91.9206H157.222V91.6593L157.193 85.1636V84.8733H157.483L165.169 84.9139C167.729 84.9139 170.295 84.9778 172.855 85.0068H173.018V85.1636C173.018 86.2665 172.971 87.3636 172.942 88.4492L172.849 91.6593ZM172.849 91.6593L172.768 88.3795C172.768 87.2998 172.704 86.2259 172.693 85.1636L172.849 85.3261C170.289 85.3261 167.723 85.4132 165.163 85.419L157.478 85.4538L157.768 85.1636L157.733 91.6593L157.478 91.4039C158.743 91.4039 160.009 91.4039 161.274 91.4039L165.094 91.4678L172.849 91.6593Z" fill="#EBEBEB"/>
<path d="M164.275 99.8501L156.654 100.013L152.764 100.082C151.475 100.082 150.175 100.082 148.881 100.117H148.619V99.8559V93.3602V93.0699H148.91L156.595 93.1106C159.155 93.1106 161.715 93.1744 164.281 93.2034H164.438V93.3602C164.438 94.4631 164.386 95.5603 164.363 96.6458L164.275 99.8501ZM164.275 99.8501L164.194 96.5703C164.165 95.4906 164.125 94.4167 164.113 93.3544L164.275 93.5169C161.71 93.5459 159.15 93.604 156.59 93.6098L148.904 93.6446L149.194 93.3544L149.159 99.8501L148.904 99.5947C150.169 99.5947 151.435 99.5947 152.7 99.6238L156.52 99.6876L164.275 99.8501Z" fill="#EBEBEB"/>
<path d="M155.73 91.6593L148.114 91.8219L144.248 91.8857C142.954 91.9148 141.659 91.8857 140.359 91.9206H140.103V91.6593L140.069 85.1636V84.8733H140.359L148.045 84.9139C150.61 84.9139 153.17 84.9778 155.73 85.0068H155.893V85.1636C155.893 86.2665 155.841 87.3636 155.818 88.4492L155.73 91.6593ZM155.73 91.6593L155.649 88.3795C155.649 87.2998 155.585 86.2259 155.574 85.1636L155.73 85.3261C153.17 85.3261 150.61 85.4132 148.045 85.419L140.359 85.4538L140.649 85.1636L140.62 91.6593L140.359 91.4039C141.63 91.4039 142.89 91.4039 144.161 91.4039L147.981 91.4678L155.73 91.6593Z" fill="#EBEBEB"/>
<path d="M242.544 172.163L234.922 172.32L231.056 172.389C229.767 172.389 228.467 172.389 227.172 172.418H226.911V172.163L226.882 165.679V165.383H227.172L234.858 165.418C237.418 165.418 239.984 165.481 242.544 165.51H242.701V165.679C242.701 166.776 242.654 167.873 242.625 168.959L242.544 172.163ZM242.544 172.163L242.463 168.877C242.463 167.798 242.393 166.729 242.387 165.667L242.544 165.824C239.984 165.853 237.418 165.917 234.858 165.917L227.172 165.952L227.463 165.667L227.428 172.163L227.172 171.902C228.438 171.902 229.703 171.902 230.969 171.902L234.789 171.971L242.544 172.163Z" fill="#EBEBEB"/>
<path d="M233.97 13.292L226.348 13.4487L222.482 13.5184C221.193 13.5184 219.893 13.5184 218.598 13.5474H218.36V13.2862V6.79038V6.49432H218.657L226.342 6.52915C228.902 6.52915 231.462 6.59301 234.028 6.62203H234.185V6.77877C234.185 7.88172 234.133 8.97305 234.109 10.0586L233.97 13.292ZM233.97 13.292L233.889 10.0063C233.86 8.92662 233.819 7.8585 233.808 6.79618L233.97 6.95292C231.404 6.95292 228.844 7.0458 226.284 7.0458L218.598 7.08643L218.889 6.79618L218.854 13.292L218.598 13.0307C219.864 13.0307 221.124 13.0307 222.395 13.0656L226.215 13.1294L233.97 13.292Z" fill="#EBEBEB"/>
<path d="M242.544 21.4828L234.922 21.6396L231.056 21.7092C229.767 21.7092 228.467 21.7092 227.172 21.7383H226.911V21.4828L226.882 14.9871V14.691H227.172L234.858 14.7258C237.418 14.7258 239.984 14.7897 242.544 14.8187H242.701V14.9754C242.701 16.0726 242.654 17.1697 242.625 18.2553L242.544 21.4828ZM242.544 21.4828L242.463 18.1972C242.463 17.1175 242.393 16.0494 242.387 14.9871L242.544 15.1438C239.984 15.1438 237.418 15.2367 234.858 15.2367L227.172 15.2773L227.463 14.9871L227.428 21.4828L227.172 21.2216C228.438 21.2216 229.703 21.2216 230.969 21.2564L234.789 21.3203L242.544 21.4828Z" fill="#EBEBEB"/>
<path d="M24.2358 13.292L16.6197 13.4487L12.7536 13.5184C11.4591 13.5184 10.1587 13.5184 8.86422 13.5474H8.6088V13.2862L8.57397 6.79619V6.50014H8.86422L16.55 6.53497C19.1158 6.53497 21.6758 6.59882 24.2358 6.62785H24.3984V6.78458C24.3984 7.88753 24.3461 8.97887 24.3229 10.0644L24.2358 13.292ZM24.2358 13.292L24.1546 10.0064C24.1546 8.92662 24.0907 7.8585 24.0791 6.79619L24.2358 6.95293C21.6758 6.95293 19.1158 7.04581 16.55 7.04581L8.86422 7.08644L9.15447 6.79619V13.292L8.86422 13.0075C10.1297 13.0075 11.3952 13.0075 12.6665 13.0424L16.4862 13.1062L24.2358 13.292Z" fill="#EBEBEB"/>
<path d="M121.417 240C184.899 240 236.362 234.043 236.362 226.695C236.362 219.347 184.899 213.39 121.417 213.39C57.9351 213.39 6.47266 219.347 6.47266 226.695C6.47266 234.043 57.9351 240 121.417 240Z" fill="#EBEBEB"/>
<path d="M39.9268 101.952H32.6009V94.0742H24.741V86.7716H32.6009V78.8884H39.9036V86.7716H47.781V94.0742H39.9268V101.952ZM33.6632 100.913H38.8877V93.0351H46.7651V87.8106H38.8877V79.9275H33.6632V87.8106H25.7801V93.0351H33.6632V100.913Z" fill="#5BD6A6"/>
<path d="M216.996 154.022H209.688V146.145H201.811V138.842H209.688V130.959H216.996V138.842H224.874V146.145H216.996V154.022ZM210.733 152.983H215.957V145.106H223.835V139.881H215.957V132.01H210.733V139.893H202.85V145.117H210.733V152.983Z" fill="#007AFF"/>
<path d="M178.62 19.7356V27.0382H170.742V34.9214H163.44V27.0382H155.556V19.7356H163.44V11.8582H170.742V19.7356H178.62Z" fill="#007AFF"/>
<path d="M108.13 21.239C109.645 21.1926 115.989 19.4105 121.237 24.5943C126.206 29.4995 130.345 46.1831 131.802 49.7299C133.259 53.2768 138.188 53.062 139.993 57.1255C141.56 60.6491 139.099 62.4312 139.25 65.1712C139.372 67.3016 141.984 70.1054 140.568 73.5071C139.285 76.6012 136.133 76.4967 134.426 77.6751C132.719 78.8535 132.255 83.306 129.022 85.0068C125.788 86.7077 122.276 84.0722 120.465 84.3799C118.654 84.6875 117.394 90.5912 111.404 91.0498C105.413 91.5084 102.905 86.7773 100.304 86.1794C97.7037 85.5815 91.8465 88.2692 88.5609 85.6628C85.2753 83.0564 84.1433 79.0625 82.6398 77.768C81.1363 76.4735 78.5415 77.1295 76.4227 73.9077C74.3038 70.6859 77.1715 67.9692 77.1483 64.8867C77.1483 62.7389 74.9598 61.1077 75.7551 57.6944C76.8522 53.0039 82.3902 53.0852 83.7253 48.2322C84.7702 44.43 85.6352 28.4953 94.3485 23.1837C100.386 19.5556 108.13 21.239 108.13 21.239Z" fill="#263238"/>
<path d="M131.483 48.8708C131.964 49.5976 132.616 50.1955 133.381 50.6123L135.57 51.9648C137.049 52.7692 138.393 53.8016 139.552 55.0241C140.091 55.6075 140.488 56.3077 140.712 57.0701C140.935 57.8324 140.979 58.6362 140.841 59.4184C140.655 60.2116 140.347 60.9713 139.929 61.6708C139.444 62.4387 139.074 63.2739 138.832 64.1495C138.751 65.1134 138.992 66.0771 139.517 66.8895C139.918 67.6673 140.347 68.3987 140.707 69.1534C141.433 70.6395 141.822 72.2823 141.288 73.7974C141.053 74.5501 140.573 75.2022 139.923 75.6492C139.229 76.0889 138.457 76.3905 137.648 76.5373C136.824 76.7289 135.976 76.8392 135.123 76.9843C134.253 77.0577 133.426 77.3915 132.749 77.9421C133.47 77.4889 134.305 77.2476 135.158 77.2455C136.011 77.1701 136.87 77.1353 137.735 77.0075C138.623 76.8963 139.481 76.6123 140.26 76.1716C141.06 75.6786 141.673 74.933 142.002 74.0528C142.739 72.3113 142.24 70.326 141.508 68.7645C141.148 67.9634 140.719 67.2029 140.347 66.4425C139.929 65.8071 139.725 65.0543 139.767 64.2946C140.057 62.8666 141.386 61.3921 141.688 59.5694C141.847 58.6567 141.784 57.7192 141.504 56.8361C141.224 55.953 140.736 55.1503 140.08 54.4958C138.813 53.285 137.361 52.2837 135.779 51.5294L133.457 50.3684C132.698 50.0182 132.025 49.5071 131.483 48.8708Z" fill="#263238"/>
<path d="M87.1677 33.2843C85.9719 36.1346 85.4262 39.1938 84.6019 42.1311C84.184 43.5998 83.8182 45.0859 83.2958 46.5023C83.0614 47.1957 82.7519 47.8615 82.3728 48.4876C82.2962 48.6326 82.1961 48.7641 82.0767 48.8765C81.9711 49.0036 81.848 49.115 81.711 49.2074C81.4208 49.428 81.1305 49.6312 80.788 49.8286C79.4604 50.6303 78.174 51.4983 76.9335 52.4292C75.6217 53.3983 74.6439 54.7515 74.1355 56.3011C73.8987 57.0949 73.8668 57.9356 74.0426 58.745C74.2555 59.5215 74.614 60.2504 75.0992 60.8929C76.0221 62.1293 76.9045 63.3716 77.1948 64.9099C77.1367 63.3426 76.2776 61.9262 75.4997 60.6316C75.0944 60.0187 74.807 59.3356 74.6522 58.6173C74.5418 57.9124 74.6138 57.191 74.8611 56.5217C75.392 55.1599 76.3052 53.9806 77.4908 53.1258C78.725 52.2369 80.0038 51.4115 81.3221 50.6529C81.6472 50.4381 81.9723 50.2175 82.2915 49.9679C82.6234 49.7012 82.8995 49.3718 83.1042 48.9985C83.512 48.3059 83.841 47.5699 84.0853 46.8042C84.5765 45.3327 84.9759 43.8321 85.2811 42.3111L86.1635 37.7832C86.41 36.2653 86.7454 34.7631 87.1677 33.2843Z" fill="#263238"/>
<path d="M81.0493 76.9901C81.833 77.7564 82.1 78.8767 82.5122 79.8926C82.9243 80.9085 83.3075 81.9476 83.7602 82.9634C84.2004 83.9996 84.7491 84.9861 85.3972 85.9066C86.0618 86.8789 86.9522 87.6757 87.9921 88.2286C90.2734 89.2212 92.6999 88.6697 94.7607 87.9441C95.8114 87.5726 96.8215 87.1488 97.8548 86.7831C98.8606 86.3669 99.9509 86.1958 101.036 86.2839C99.9472 86.0035 98.8038 86.0155 97.7212 86.3187C96.6357 86.5741 95.5908 86.8992 94.5343 87.2011C92.4793 87.7816 90.2386 88.1473 88.41 87.3172C87.5078 86.833 86.7307 86.1453 86.1403 85.3087C85.499 84.4486 84.9283 83.5381 84.4336 82.5861C83.9112 81.6283 83.441 80.6414 82.9475 79.6836C82.6921 79.1902 82.4309 78.7026 82.1465 78.2266C81.8919 77.7278 81.5143 77.3022 81.0493 76.9901Z" fill="#263238"/>
<path d="M138.049 209.849H87.7657L84.7761 147.654H129.707L138.049 209.849Z" fill="#37474F"/>
<path d="M115.635 147.654L110.324 189.775L110.318 189.839L110.202 190.716L109.987 192.44L109.743 194.361L109.656 195.046L109.587 195.598L107.793 209.849H87.7657L84.7761 147.654H115.635Z" fill="#263238"/>
<path d="M127.837 209.849H126.508C126.438 209.297 126.375 208.752 126.305 208.2C124.517 193.688 122.781 179.175 121.272 164.663C121.133 163.334 120.993 161.998 120.86 160.669C120.86 160.46 121.197 160.419 121.226 160.628C121.347 161.522 121.475 162.416 121.591 163.31C123.739 178.81 125.782 194.332 127.837 209.849Z" fill="#263238"/>
<path d="M125.144 147.608C125.146 147.623 125.146 147.639 125.144 147.654C125.011 148.275 123.542 155.09 121.603 163.328C121.499 163.775 121.394 164.227 121.284 164.68C120.425 168.274 119.49 172.076 118.544 175.71C116.5 183.599 114.405 190.669 112.977 192.997C112.821 193.285 112.605 193.537 112.344 193.734C111.88 194.007 110.893 194.495 109.668 195.069L108.855 195.447L108.159 195.766C105.372 197.043 102.023 198.506 100.473 199.15V199.272L99.933 209.86H52.5701L57.5856 179.675L63.6402 147.637L125.144 147.608Z" fill="#37474F"/>
<path d="M116.436 191.662C110.926 193.668 105.6 196.148 100.519 199.075C100.48 199.097 100.451 199.134 100.438 199.176C100.424 199.219 100.427 199.266 100.446 199.306C100.465 199.347 100.499 199.379 100.54 199.396C100.581 199.414 100.628 199.415 100.67 199.4C106.028 197.078 111.496 194.895 116.721 192.3C116.806 192.263 116.872 192.193 116.905 192.106C116.938 192.02 116.936 191.924 116.898 191.839C116.86 191.754 116.79 191.688 116.704 191.655C116.617 191.622 116.521 191.624 116.436 191.662Z" fill="#263238"/>
<path d="M118.05 154.951C118.05 154.765 117.714 154.725 117.714 154.951C117.754 161.337 117.348 166.909 116.814 172.86C116.564 175.617 114.347 190.855 109.558 189.764C108.756 189.578 108.344 188.788 108.222 187.581C108.072 186.124 108.617 184.348 108.855 182.902C109.389 179.709 109.813 176.517 110.086 173.277C110.646 167.271 110.582 161.223 109.894 155.23C109.887 155.194 109.868 155.162 109.84 155.139C109.812 155.116 109.777 155.103 109.74 155.103C109.704 155.103 109.669 155.116 109.641 155.139C109.613 155.162 109.594 155.194 109.587 155.23C109.587 163.566 109.372 171.884 108.13 180.145C107.549 184.11 105.529 190.083 109.679 190.698C113.83 191.314 116.645 181.312 117.156 178.572C118.596 170.903 118.654 162.683 118.05 154.951Z" fill="#263238"/>
<path d="M109.685 190.153C109.256 191.18 108.896 192.235 108.606 193.31C108.3 194.143 108.149 195.024 108.159 195.911C108.159 196.079 108.402 196.097 108.489 195.981C108.988 195.201 109.364 194.349 109.604 193.456C109.97 192.475 110.353 191.505 110.69 190.518C110.738 190.385 110.732 190.238 110.672 190.11C110.612 189.981 110.503 189.882 110.37 189.833C110.237 189.785 110.09 189.791 109.962 189.851C109.833 189.911 109.734 190.019 109.685 190.153Z" fill="#263238"/>
<path d="M74.2573 193.322C73.7813 198.837 73.2182 204.352 72.6261 209.849H72.1095C72.69 204.334 73.3518 198.819 74.0658 193.316C74.0832 193.194 74.269 193.194 74.2573 193.322Z" fill="#263238"/>
<path d="M106.76 91.9902C111.096 106.131 129.863 156.64 142.449 164.338C150.686 169.371 192.058 172.233 200.017 168.541C204.434 166.486 203.058 133.072 197.851 132.886C191.356 132.654 159.422 131.795 155.887 130.106C152.352 128.417 128.499 96.5181 119.409 86.8528C103.741 70.1809 103.869 82.5745 106.76 91.9902Z" fill="#AD6359"/>
<path d="M187.954 130.379L182.056 171.246C182.056 171.246 148.457 172.233 139.296 164.738C126.241 154.069 107.52 100.082 105.395 91.6361C100.362 71.6089 111.578 74.9526 120.401 84.6701C126.131 90.9976 148.671 123.366 157.019 129.328C159.387 131.04 187.954 130.379 187.954 130.379Z" fill="#EBEBEB"/>
<path d="M173.778 169.243C174.469 163.177 178.202 138.477 179.368 133.177C179.45 132.811 179.705 132.77 179.67 133.177C178.039 151.398 175.026 163.363 174.022 169.272C173.993 169.411 173.761 169.4 173.778 169.243Z" fill="#263238"/>
<path d="M129.724 132.48L135.337 171.083C135.337 171.083 72.423 172.012 56.8018 170.915C56.8018 170.915 69.5437 98.7414 86.3375 80.5021C94.7374 71.3825 104.6 72.0675 110.887 78.4414C112.477 80.0552 131.454 105.144 133.451 114.717C135.192 123.169 129.724 132.48 129.724 132.48Z" fill="#007AFF"/>
<path d="M105.21 128.173C108.564 127.87 111.936 127.814 115.299 128.004C116.965 128.126 118.619 128.318 120.274 128.55C121.098 128.666 121.928 128.753 122.752 128.834C123.62 128.942 124.497 128.942 125.365 128.834C125.44 128.834 125.458 128.939 125.365 128.956C124.561 129.14 123.747 129.272 122.927 129.351C122.13 129.406 121.331 129.406 120.535 129.351C118.84 129.247 117.151 129.067 115.456 128.945C112.042 128.701 108.629 128.451 105.204 128.457C105.059 128.457 105.053 128.19 105.21 128.173Z" fill="#263238"/>
<path d="M97.6166 132.59C100.288 131.812 103.002 131.184 105.744 130.71C107.114 130.477 108.489 130.326 109.877 130.21C110.533 130.158 111.2 130.112 111.862 130.077C112.524 130.042 113.325 130.077 114.051 130.077C114.126 130.077 114.149 130.187 114.051 130.199C113.366 130.263 112.686 130.442 112.007 130.553L109.952 130.866C108.588 131.081 107.224 131.313 105.848 131.516C103.108 131.917 100.38 132.347 97.6514 132.846C97.4773 132.828 97.4541 132.619 97.6166 132.59Z" fill="#263238"/>
<path d="M97.2566 209.849H47.6182C53.4232 173.382 60.3891 136.033 67.0939 117.236C81.5251 76.7115 93.3034 75.1616 93.3034 75.1616V75.208C93.3673 76.9205 95.0449 122.855 96.3336 171.437C96.6819 184.313 97.0012 197.374 97.2566 209.849Z" fill="#EBEBEB"/>
<path d="M89.0601 188.086C89.0601 186.67 88.7466 179.959 88.6189 178.606C88.6189 178.45 88.5609 178.136 88.4332 178.136C86.5814 178.136 80.1553 178.792 73.6827 178.792C69.0544 178.705 64.4352 178.345 59.8494 177.712C59.6346 177.776 59.6346 185.149 59.5185 188.713C59.2863 196.149 59.6288 204.561 61.2136 206.128C64.1741 209.03 72.0631 208.781 74.5651 208.758C77.067 208.734 85.8848 208.729 87.9572 204.177C88.8395 202.14 89.0833 191.761 89.0601 188.086ZM87.8991 195.632C87.7946 199.301 87.6785 202.598 86.2679 204.531C85.0605 206.163 81.653 207.806 73.8104 207.8C68.1447 207.8 63.3614 206.761 62.0553 205.251C60.488 203.446 60.3138 198.256 60.3138 195.156C60.3138 190.878 60.3138 187.459 60.3138 183.187C71.2678 185.729 83.319 184.475 87.8875 183.552C87.9049 183.732 88.0036 192.759 87.9165 195.632H87.8991ZM87.9281 182.861C73.7001 184.69 64.894 183.163 60.3312 182.281C60.3312 180.911 60.3312 179.843 60.3312 178.467C62.2875 178.961 68.8704 179.744 73.8046 179.744C78.3964 179.744 85.1418 179.106 88.0036 178.763C87.9223 179.889 87.9804 182.339 87.9456 182.856L87.9281 182.861Z" fill="#DBDBDB"/>
<path d="M91.8117 94.2135C89.0195 105.771 74.658 146.882 71.0879 150.446C66.8328 154.696 48.2801 167.763 41.8133 150.365C37.3319 138.32 67.7849 96.0943 82.1754 82.4468C89.1995 75.8233 96.4847 74.8481 91.8117 94.2135Z" fill="#EBEBEB"/>
<path d="M86.9006 115.274C86.0299 116.882 85.0721 118.444 84.1317 120.011C84.3523 119.43 84.567 118.85 84.776 118.269C85.6816 115.767 86.5175 113.236 87.4405 110.723C87.4753 110.642 87.3476 110.613 87.3128 110.688C86.3434 112.865 85.3159 115.024 84.3697 117.219C83.4235 119.413 82.6282 121.526 81.769 123.703C80.0798 128.086 78.3673 132.463 76.8 136.892C75.8724 139.339 75.0779 141.835 74.4199 144.369C74.4199 144.438 74.507 144.491 74.5418 144.421C75.5809 142.325 76.3994 140.119 77.2353 137.937C78.0713 135.754 78.9072 133.595 79.7199 131.412C80.5326 129.229 81.3975 126.971 82.2567 124.759C82.6862 123.645 83.1332 122.542 83.5686 121.433C84.9018 119.498 86.0357 117.432 86.9529 115.268C86.9645 115.268 86.9123 115.245 86.9006 115.274Z" fill="#263238"/>
<path d="M92.7812 75.2138C91.2332 78.4801 89.7317 81.7696 88.2765 85.0823C86.8253 88.3911 85.3276 91.6768 83.9228 95.0088L83.7487 95.4268L84.126 95.6822L90.2154 99.7979L90.0703 98.9214C88.4159 101.394 86.8137 103.896 85.1999 106.392L85.0432 106.636L85.1302 106.903C86.7614 111.959 88.3346 117.033 90.0471 122.066C91.7595 127.099 93.4372 132.138 95.2367 137.159C93.8551 132.019 92.4078 126.905 90.8946 121.816C89.4317 116.708 87.8296 111.646 86.2854 106.561L86.2158 107.072C87.8528 104.593 89.5014 102.12 91.1036 99.6122L91.4345 99.0897L90.9294 98.7589L84.7645 94.7534L84.9735 95.4268C86.3551 92.0889 87.6322 88.7104 88.9673 85.3551C90.3025 81.9999 91.5389 78.6039 92.7812 75.2138Z" fill="#DBDBDB"/>
<path d="M141.404 209.849H123.478C122.416 197.293 121.324 184.168 120.244 171.263C118.706 152.821 117.185 134.825 115.769 119.558C114.503 105.351 112.267 91.2464 109.076 77.3442C108.994 76.9901 108.942 76.7637 108.931 76.7347C108.919 76.7057 108.931 76.7347 108.931 76.7347C109.648 77.1812 110.288 77.7398 110.829 78.3891C110.847 78.4099 110.866 78.4293 110.887 78.4472L111.078 78.662C111.13 78.7132 111.178 78.7675 111.224 78.8245C114.306 82.2088 119.461 89.1284 124.047 96.2395C128.47 103.089 132.371 110.108 133.335 114.276L133.387 114.508C133.416 114.641 133.439 114.769 133.462 114.897C133.652 116.002 133.759 117.119 133.782 118.24C133.825 122.821 132.64 127.329 130.351 131.296C130.336 131.33 130.318 131.363 130.299 131.394C130.148 131.65 130.055 131.783 130.055 131.783V131.847L135.93 172.064L141.404 209.849Z" fill="#EBEBEB"/>
<path d="M127.257 102.126C125.515 99.3277 123.699 96.5588 121.974 93.7375C121.922 93.6563 122.05 93.5634 122.108 93.6388C123.849 95.9608 125.591 98.2828 127.28 100.645C126.7 99.3858 126.171 98.1203 125.666 96.8316C125.608 96.6865 125.812 96.5646 125.881 96.7097C126.665 98.3641 127.367 100.048 128.064 101.743C129.58 103.844 130.923 106.065 132.081 108.384C134.478 113.312 135.512 118.699 134.211 124.086C133.859 125.574 133.333 127.016 132.644 128.382C132.18 129.311 130.665 131.331 130.676 131.389C131.663 136.892 132.418 142.459 133.178 147.997C133.939 153.535 134.757 159.2 135.413 164.831C135.779 168.012 135.993 171.217 136.481 174.392C136.481 174.508 136.319 174.555 136.301 174.438C135.901 171.675 135.303 168.941 134.809 166.19C134.316 163.438 133.857 160.686 133.41 157.923C132.516 152.351 131.715 146.754 130.908 141.164C130.456 138.006 129.956 134.843 129.596 131.667C129.556 131.319 130.984 129.067 131.408 128.184C131.972 127.015 132.434 125.799 132.789 124.55C133.516 122.012 133.741 119.356 133.451 116.731C132.841 111.379 130.067 106.613 127.257 102.126Z" fill="#263238"/>
<path d="M109.076 77.3442C110.926 80.1538 112.808 82.9383 114.724 85.6976C116.651 88.4492 118.532 91.2356 120.494 93.9581L120.535 93.3079L115.821 98.248L115.432 98.6543L115.844 99.0549C117.83 100.976 119.85 102.863 121.864 104.755L121.696 104.268C120.964 109.388 120.181 114.496 119.53 119.628C118.88 124.759 118.19 129.885 117.626 135.028C118.602 129.943 119.49 124.852 120.343 119.75C121.196 114.647 121.992 109.539 122.804 104.436L122.851 104.146L122.636 103.943C120.645 102.027 118.654 100.106 116.634 98.2248V99.0317L121.278 94.0045L121.568 93.6911L121.318 93.3544C119.339 90.6435 117.255 87.9906 115.258 85.3029C113.261 82.6151 111.171 79.9797 109.076 77.3442Z" fill="#DBDBDB"/>
<path d="M86.413 83.869C85.9428 77.0017 94.2613 74.2734 99.4045 73.5652C105.494 72.7293 109.552 73.2343 112.483 79.1438C115.571 85.3725 117.191 92.5997 118.404 99.4206C118.631 100.692 120.616 100.373 120.39 99.0955C118.991 91.2414 116.982 76.5838 109.157 72.3229C101.953 68.3929 83.615 72.5551 84.4277 84.1883C84.5147 85.4828 86.5 85.1519 86.413 83.869Z" fill="#455A64"/>
<path d="M124.563 102.271C124.716 103.179 124.595 104.112 124.216 104.951C123.837 105.79 123.217 106.498 122.435 106.984C121.653 107.47 120.744 107.713 119.824 107.681C118.903 107.649 118.013 107.345 117.266 106.806C116.52 106.267 115.95 105.519 115.63 104.655C115.309 103.792 115.253 102.853 115.468 101.957C115.682 101.062 116.158 100.25 116.835 99.6261C117.512 99.0018 118.359 98.5928 119.269 98.4512C119.868 98.3542 120.479 98.3761 121.069 98.5156C121.659 98.6551 122.216 98.9094 122.708 99.2642C123.199 99.6189 123.616 100.067 123.935 100.583C124.253 101.099 124.467 101.672 124.563 102.271Z" fill="#263238"/>
<path d="M122.746 102.567C122.83 103.11 122.751 103.665 122.52 104.163C122.288 104.661 121.914 105.08 121.445 105.365C120.976 105.651 120.432 105.792 119.884 105.769C119.335 105.746 118.805 105.561 118.361 105.238C117.917 104.915 117.579 104.467 117.389 103.951C117.199 103.436 117.166 102.876 117.295 102.342C117.423 101.807 117.706 101.323 118.109 100.95C118.513 100.577 119.017 100.332 119.56 100.245C119.921 100.186 120.291 100.2 120.648 100.285C121.005 100.37 121.341 100.525 121.637 100.741C121.934 100.957 122.184 101.23 122.375 101.543C122.565 101.856 122.691 102.204 122.746 102.567Z" fill="#EBEBEB"/>
<path d="M93.3964 105.382C98.4758 124.672 97.6921 129.386 96.09 131.603C94.8823 133.155 93.3327 134.406 91.5621 135.261L90.9816 133.989L91.2718 134.622L90.9816 133.989C92.5284 133.23 93.8868 132.135 94.958 130.785C96.119 129.183 97.071 124.841 92.0555 105.736L93.3964 105.382Z" fill="#C7C7C7"/>
<path d="M88.5031 135.16L89.3244 136.642C89.4968 136.954 89.889 137.066 90.2003 136.894L93.3182 135.167C93.6296 134.994 93.7421 134.602 93.5697 134.291L92.7485 132.808C92.576 132.497 92.1839 132.384 91.8726 132.557L88.7546 134.284C88.4433 134.456 88.3307 134.848 88.5031 135.16Z" fill="#263238"/>
<path d="M80.7823 105.887C76.9568 120.4 76.0338 128.387 77.8798 130.936C78.9508 132.285 80.3093 133.377 81.8562 134.134L81.2757 135.412C79.505 134.557 77.9555 133.306 76.7478 131.754C74.5535 128.724 75.3314 121.125 79.4355 105.533L80.7823 105.887Z" fill="#C7C7C7"/>
<path d="M80.1021 132.955L79.2819 134.438C79.1097 134.75 79.2225 135.142 79.534 135.314L82.6532 137.039C82.9646 137.211 83.3566 137.098 83.5288 136.787L84.3491 135.303C84.5213 134.992 84.4084 134.6 84.097 134.427L80.9778 132.703C80.6664 132.531 80.2743 132.643 80.1021 132.955Z" fill="#263238"/>
<path d="M78.9653 104.901C79.6036 101.683 80.4392 98.5072 81.4673 95.3919C82.0758 94.0168 83.042 92.83 84.2653 91.9554C84.5439 91.9264 84.422 89.4767 84.2653 87.4797C84.1376 85.7382 83.9518 83.6601 84.3756 83.0912C84.6202 82.8282 84.9576 82.6708 85.3163 82.6524C85.675 82.634 86.0268 82.756 86.297 82.9925C86.7789 83.5091 86.8079 85.5757 86.8775 87.3462C86.9472 89.3489 87.0865 91.7929 87.3652 91.7929C88.6026 92.5954 89.6282 93.6846 90.3547 94.9682C91.7079 98.0427 92.8257 101.216 93.6984 104.459C94.1454 106.526 93.4662 106.781 92.8741 106.99C92.0382 107.275 91.5041 106.7 90.8482 104.413C89.8033 100.791 88.4855 94.6895 85.9604 94.707C83.4584 94.9624 82.4425 101.423 81.6414 105.028C81.1364 107.286 80.6604 107.501 79.7955 107.304C79.1917 107.159 78.5706 106.903 78.9653 104.901Z" fill="#263238"/>
<path d="M109.488 75.5795C109.488 75.5795 110.068 86.7657 108.002 86.9515C101.738 87.532 94.7723 78.9174 94.3892 77.5532C94.2905 77.2049 94.7956 68.5206 95.2077 61.7694C95.4689 57.4273 95.6953 53.8863 95.6953 53.8863L111.7 63.0581L109.639 74.7436L109.488 75.5795Z" fill="#AD6359"/>
<path d="M111.7 63.0581L109.639 74.7436C106.457 73.716 103.527 72.0296 101.041 69.7941C98.5544 67.5587 96.5668 64.8244 95.2076 61.7694C95.4689 57.4273 95.6953 53.8863 95.6953 53.8863L97.7096 54.9544L111.7 63.0581Z" fill="#263238"/>
<path d="M128.174 44.4474C131.512 65.0086 119.571 69.3275 115.136 70.0415C111.113 70.6917 97.3264 72.3926 91.8813 52.2841C86.4363 32.1756 94.9406 24.1299 104.072 22.1562C113.203 20.1825 124.836 23.8861 128.174 44.4474Z" fill="#AD6359"/>
<path d="M123.159 41.9106C122.678 41.8806 122.199 41.8244 121.725 41.7422C121.214 41.7536 120.715 41.5965 120.303 41.2952C120.192 41.175 120.124 41.0218 120.109 40.8591C120.095 40.6965 120.134 40.5335 120.221 40.3955C120.435 40.1538 120.708 39.9728 121.014 39.8708C121.32 39.7689 121.647 39.7496 121.963 39.815C122.634 39.8466 123.268 40.1307 123.739 40.6102C123.835 40.7237 123.898 40.8621 123.919 41.0095C123.94 41.1569 123.919 41.3072 123.858 41.4432C123.798 41.5792 123.7 41.6952 123.576 41.7779C123.452 41.8606 123.307 41.9066 123.159 41.9106Z" fill="#263238"/>
<path d="M109.227 43.6985C109.708 43.594 110.132 43.4199 110.597 43.2747C111.103 43.1933 111.569 42.9463 111.92 42.5723C112.008 42.434 112.046 42.2705 112.031 42.1075C112.015 41.9446 111.945 41.7916 111.833 41.6726C111.578 41.468 111.273 41.3358 110.949 41.2898C110.625 41.2438 110.295 41.2858 109.993 41.4113C109.34 41.5671 108.769 41.9603 108.391 42.5143C108.313 42.6462 108.275 42.7976 108.282 42.9505C108.288 43.1034 108.338 43.2512 108.426 43.3762C108.515 43.5012 108.637 43.5981 108.779 43.6553C108.921 43.7125 109.076 43.7275 109.227 43.6985Z" fill="#263238"/>
<path d="M113.133 48.3832C113.133 48.3309 113.035 48.4586 113.041 48.5167C113.249 49.9215 113.249 51.5643 112.025 52.1796C111.99 52.1796 112.025 52.2667 112.025 52.2551C113.575 51.8603 113.557 49.6777 113.133 48.3832Z" fill="#263238"/>
<path d="M111.705 47.0538C109.424 47.1409 109.767 51.6978 111.885 51.6281C114.004 51.5585 113.621 46.9783 111.705 47.0538Z" fill="#263238"/>
<path d="M110.829 47.3615C110.452 47.6517 110.092 48.1393 109.616 48.2206C109.14 48.3019 108.606 47.8723 108.211 47.4369C108.17 47.3963 108.13 47.4369 108.135 47.5008C108.188 48.3715 108.594 49.2423 109.54 49.3061C110.486 49.37 110.962 48.5399 111.113 47.6401C111.142 47.4776 110.968 47.257 110.829 47.3615Z" fill="#263238"/>
<path d="M120.906 47.3325C120.906 47.2744 121.022 47.3905 121.022 47.4486C121.075 48.865 121.371 50.4788 122.683 50.8619C122.723 50.8619 122.723 50.949 122.683 50.9432C121.098 50.8329 120.726 48.6792 120.906 47.3325Z" fill="#263238"/>
<path d="M122.067 45.7651C124.331 45.44 124.819 49.9911 122.723 50.293C120.628 50.5948 120.169 46.0437 122.067 45.7651Z" fill="#263238"/>
<path d="M123.048 45.9625C123.437 46.1656 123.838 46.543 124.273 46.543C124.709 46.543 125.086 45.9625 125.353 45.4865C125.382 45.4342 125.423 45.4865 125.428 45.5271C125.55 46.3978 125.359 47.3324 124.54 47.5879C123.722 47.8433 123.153 47.1351 122.851 46.2933C122.799 46.1424 122.892 45.8812 123.048 45.9625Z" fill="#263238"/>
<path d="M114.312 59.4474C114.66 59.7667 115.014 60.2137 115.531 60.2427C116.058 60.2167 116.575 60.0803 117.046 59.8422C117.055 59.8373 117.066 59.8358 117.077 59.8379C117.087 59.84 117.096 59.8456 117.103 59.8537C117.11 59.8618 117.114 59.872 117.114 59.8826C117.114 59.8932 117.111 59.9035 117.104 59.9118C116.913 60.1917 116.651 60.4156 116.345 60.5605C116.039 60.7054 115.7 60.7661 115.363 60.7362C115.07 60.6713 114.803 60.5207 114.596 60.3035C114.39 60.0864 114.252 59.8126 114.202 59.5171C114.155 59.4474 114.26 59.4474 114.312 59.4474Z" fill="#263238"/>
<path d="M119.774 53.8398C119.774 53.8398 120.25 55.9238 120.355 56.9223C120.355 57.0152 120.123 57.079 119.774 57.1313C119.774 57.1313 119.774 57.1313 119.739 57.1313C118.899 57.3628 118.011 57.358 117.173 57.1173C116.336 56.8766 115.58 56.4094 114.991 55.7671C114.91 55.6742 115.026 55.5639 115.125 55.6162C116.47 56.3718 118.023 56.6731 119.554 56.4753C119.6 56.1967 118.619 52.9343 118.776 52.911C119.561 52.9073 120.342 53.0128 121.098 53.2245C120.233 48.8534 118.671 44.6563 117.876 40.291C117.874 40.2602 117.882 40.2294 117.899 40.2036C117.916 40.1778 117.941 40.1584 117.97 40.1484C117.999 40.1385 118.031 40.1385 118.06 40.1486C118.09 40.1586 118.115 40.1781 118.132 40.2039C120.076 44.488 121.185 49.4919 122.195 53.985C122.299 54.5422 120.186 53.9734 119.774 53.8398Z" fill="#263238"/>
<path d="M118.642 56.9339C118.175 57.6055 117.541 58.1437 116.802 58.4954C116.395 58.679 115.939 58.7278 115.502 58.6348C114.55 58.4316 114.492 57.5666 114.631 56.8178C114.708 56.4172 114.832 56.0274 115.003 55.6568C116.047 56.4634 117.323 56.9114 118.642 56.9339Z" fill="#263238"/>
<path d="M116.802 58.4954C116.395 58.679 115.939 58.7278 115.502 58.6348C114.55 58.4316 114.492 57.5666 114.631 56.8178C115.641 56.8816 116.674 57.5202 116.802 58.4954Z" fill="#FF99BA"/>
<path d="M91.8813 53.062C93.2217 52.4192 94.3721 51.4393 95.2198 50.2181C96.0675 48.997 96.5834 47.5765 96.7168 46.096C100.363 44.5187 103.523 41.9979 105.871 38.7933C105.732 39.2229 104.71 42.3169 104.13 43.8727C117.342 41.4694 121.475 31.3861 121.475 31.3861C125.742 35.676 126.584 38.416 127.193 39.7802C127.193 39.7802 127.332 31.6532 123.188 26.2371C121.794 24.3573 119.88 22.9271 117.683 22.1234C115.485 21.3197 113.1 21.1777 110.823 21.715C107.713 20.641 104.355 20.5087 101.171 21.3348C97.986 22.161 95.116 23.9087 92.9204 26.359C84.3 35.647 91.8813 53.062 91.8813 53.062Z" fill="#263238"/>
<path d="M114.184 41.7655C112.058 42.9155 109.773 43.7431 107.404 44.221C107.404 44.221 107.375 44.221 107.404 44.221C111.119 43.2241 114.483 41.2143 117.121 38.416C118.242 37.2195 119.206 35.8852 119.989 34.4454C120.909 32.9034 121.514 31.195 121.771 29.4182C121.777 29.3954 121.79 29.3751 121.808 29.3606C121.827 29.3461 121.849 29.3382 121.873 29.3382C121.896 29.3382 121.919 29.3461 121.937 29.3606C121.956 29.3751 121.969 29.3954 121.974 29.4182C121.913 31.2078 121.55 32.9741 120.9 34.6427C120.181 36.2484 119.176 37.7098 117.934 38.9558C116.821 40.0648 115.556 41.0107 114.178 41.7655" fill="#263238"/>
<path d="M110.556 55.9644C109.339 55.9924 108.139 55.6783 107.092 55.058C106.046 54.4376 105.194 53.5359 104.634 52.4554C104.074 51.3749 103.829 50.1589 103.926 48.9459C104.023 47.7329 104.459 46.5714 105.183 45.5937C105.908 44.6159 106.892 43.8612 108.024 43.4152C109.157 42.9693 110.391 42.8501 111.588 43.0712C112.785 43.2922 113.895 43.8447 114.793 44.6658C115.692 45.4868 116.341 46.5435 116.669 47.7156C117.131 49.3767 116.915 51.1534 116.068 52.6554C115.221 54.1574 113.813 55.2619 112.152 55.7264C111.632 55.8704 111.096 55.9503 110.556 55.9644ZM110.277 43.832C109.808 43.8422 109.342 43.9124 108.89 44.041C107.513 44.429 106.335 45.3273 105.596 46.5531C104.858 47.779 104.615 49.2401 104.916 50.6391C105.217 52.0381 106.04 53.2697 107.217 54.0831C108.395 54.8966 109.838 55.2308 111.253 55.0177C112.668 54.8045 113.948 54.0601 114.834 52.9359C115.719 51.8117 116.143 50.3923 116.019 48.9667C115.894 47.5411 115.231 46.2165 114.165 45.2625C113.098 44.3086 111.708 43.797 110.277 43.832Z" fill="#007AFF"/>
<path d="M125.318 53.8166C122.834 53.8747 120.517 51.3785 120.041 48.0116C119.789 46.4102 120.045 44.7698 120.773 43.3212C121.05 42.6834 121.485 42.1272 122.038 41.7059C122.592 41.2846 123.244 41.0123 123.932 40.9151C124.621 40.8178 125.322 40.8988 125.971 41.1503C126.619 41.4019 127.192 41.8156 127.634 42.3518C128.735 43.5451 129.433 45.0536 129.631 46.6649C130.13 50.2117 128.389 53.4045 125.742 53.776C125.602 53.8013 125.46 53.8149 125.318 53.8166ZM124.384 41.7423C124.273 41.7365 124.163 41.7365 124.053 41.7423C123.507 41.8461 122.994 42.079 122.557 42.4213C122.12 42.7636 121.771 43.2055 121.539 43.7101C120.899 44.9976 120.678 46.4529 120.906 47.8723C121.336 50.949 123.449 53.2071 125.62 52.8994C127.791 52.5918 129.202 49.8402 128.772 46.7694C128.6 45.3433 127.992 44.0051 127.031 42.9381C126.698 42.5644 126.29 42.2648 125.834 42.0588C125.378 41.8528 124.884 41.7449 124.384 41.7423Z" fill="#007AFF"/>
<path d="M116.558 48.4992L115.908 47.9187C116.773 46.9609 118.875 45.5445 120.68 47.0016L120.134 47.6807C118.515 46.3688 116.634 48.418 116.558 48.4992Z" fill="#007AFF"/>
<path d="M88.1022 54.223L87.2837 53.9327C87.4172 53.5496 88.6479 50.1769 90.5229 49.5964C92.2644 49.0565 103.973 48.5109 104.455 48.4935L104.495 49.3584C101.146 49.5093 92.1251 50.0086 90.7725 50.4265C89.5418 50.7864 88.4273 53.271 88.1022 54.223Z" fill="#007AFF"/>
<path d="M95.4049 53.3348C95.4049 53.3348 90.3894 47.1873 87.5624 49.0275C84.7354 50.8677 88.8511 60.028 92.3921 61.0322C92.8378 61.1956 93.312 61.2671 93.786 61.2424C94.2601 61.2178 94.7242 61.0974 95.1505 60.8886C95.5768 60.6798 95.9564 60.3868 96.2665 60.0274C96.5766 59.668 96.8108 59.2496 96.9549 58.7973L95.4049 53.3348Z" fill="#AD6359"/>
<path d="M88.8106 51.6165C88.7983 51.6165 88.7865 51.6214 88.7778 51.6301C88.7691 51.6388 88.7642 51.6506 88.7642 51.6629C88.7642 51.6753 88.7691 51.6871 88.7778 51.6958C88.7865 51.7045 88.7983 51.7094 88.8106 51.7094C91.3009 52.5105 92.7464 54.6641 93.8145 56.9339C93.025 56.0921 92.0092 55.6742 90.8714 56.6204C90.8133 56.6727 90.8714 56.7655 90.9468 56.7481C91.3624 56.5806 91.8197 56.5465 92.2556 56.6505C92.6914 56.7545 93.084 56.9915 93.3791 57.3286C93.8716 57.8942 94.3017 58.5111 94.662 59.1688C94.7897 59.3778 95.1729 59.2327 95.0742 58.9888V58.9308C94.871 55.8251 92.1485 51.6804 88.8106 51.6165Z" fill="#263238"/>
<path d="M94.2846 59.9699C94.297 60.0698 94.2885 60.1712 94.2599 60.2678C94.2313 60.3643 94.183 60.4539 94.1181 60.5309C94.0533 60.6079 93.9732 60.6707 93.883 60.7153C93.7927 60.7599 93.6942 60.7855 93.5936 60.7903C93.4931 60.7951 93.3926 60.7791 93.2985 60.7433C93.2044 60.7074 93.1187 60.6526 93.0468 60.5821C92.9749 60.5116 92.9183 60.4271 92.8805 60.3337C92.8428 60.2404 92.8248 60.1402 92.8275 60.0396C92.8326 59.8552 92.9072 59.6795 93.0363 59.5478C93.1654 59.416 93.3395 59.3379 93.5238 59.3291C93.708 59.3203 93.8888 59.3814 94.0299 59.5002C94.171 59.6191 94.262 59.7868 94.2846 59.9699Z" fill="white"/>
<path d="M92.1833 58.8089C92.1863 58.8691 92.1775 58.9294 92.1573 58.9862C92.137 59.043 92.1058 59.0953 92.0654 59.14C92.025 59.1847 91.9761 59.2211 91.9216 59.2469C91.8672 59.2728 91.8081 59.2877 91.7479 59.2907C91.6877 59.2938 91.6275 59.2849 91.5706 59.2647C91.5138 59.2445 91.4616 59.2133 91.4168 59.1728C91.3721 59.1324 91.3357 59.0836 91.3099 59.0291C91.284 58.9746 91.2691 58.9156 91.2661 58.8554C91.2599 58.7337 91.3023 58.6146 91.384 58.5243C91.4656 58.4339 91.5798 58.3797 91.7015 58.3735C91.8231 58.3674 91.9422 58.4098 92.0325 58.4914C92.1229 58.5731 92.1771 58.6873 92.1833 58.8089Z" fill="white"/>
<path d="M109.494 76.1426L106.011 85.268L94.5401 74.0238L91.4229 77.7622C91.4229 77.7622 102.777 95.7577 102.83 94.9333L106.411 87.056L111.903 92.385L111.206 78.7606L109.494 76.1426Z" fill="#007AFF"/>
<path d="M111.955 85.628C111.769 83.3814 111.636 81.1175 111.375 78.8826C111.375 78.8013 111.235 78.7665 111.218 78.8826C110.811 81.0594 111.584 89.645 111.613 91.7058C111.386 91.4736 106.527 87.0212 106.481 87.0966C105.697 88.3505 103.068 94.0626 102.888 94.6083C101.094 91.7522 93.4894 80.4905 91.3764 77.7738C91.3656 77.7561 91.3482 77.7434 91.3281 77.7385C91.3079 77.7336 91.2867 77.7369 91.269 77.7477C91.2513 77.7585 91.2386 77.7758 91.2337 77.796C91.2288 77.8161 91.2321 77.8374 91.2428 77.8551C92.8392 80.8795 102.673 95.7402 102.806 95.6938C104.196 92.9851 105.446 90.2067 106.551 87.3695C107.375 88.3447 112.286 93.3776 112.298 93.0467C112.315 90.5695 112.2 88.0931 111.955 85.628Z" fill="#263238"/>
<path d="M110.306 105.655C110.306 105.655 105.819 99.7341 110.103 96.9999C114.387 94.2658 117.865 100.831 117.865 100.831L110.306 105.655Z" fill="#455A64"/>
<path d="M145.798 144.618L146.419 151.857L146.64 154.249L144.544 153.059L138.252 149.425L110.161 105.4L117.708 100.576L145.798 144.618Z" fill="#455A64"/>
<path d="M146.437 151.869L146.646 154.255L144.556 153.064L146.437 151.869Z" fill="#37474F"/>
<path d="M118.192 99.9449L109.369 105.575L110.486 107.327L119.31 101.697L118.192 99.9449Z" fill="#263238"/>
<path d="M119.422 101.888L110.598 107.518L111.716 109.269L120.539 103.64L119.422 101.888Z" fill="#263238"/>
<path d="M111.717 109.26L114.561 107.443L123.159 124.376L122.073 124.98L111.717 109.26Z" fill="#263238"/>
<path d="M94.1338 121.195C98.4469 120.342 111.549 157.215 105.25 158.777C77.2935 165.743 54.4045 161.354 48.9826 158.777C41.8715 155.369 41.2794 146.238 44.2516 142.023C49.4354 134.715 87.4465 122.524 94.1338 121.195Z" fill="#AD6359"/>
<path d="M147.824 119.239C147.754 123.494 137.276 122.437 137.276 122.437C138.789 123.478 139.888 125.017 140.382 126.785C141.108 129.937 136.487 132.457 136.487 132.457C137.827 133.864 138.713 135.642 139.029 137.559C139.418 140.648 135.117 143.852 135.117 143.852C135.638 145.824 135.432 147.918 134.536 149.75C131.942 154.545 102.986 159.177 99.3814 159.833L92.4154 122.101C92.4154 122.101 115.165 109.237 121.44 109.666C126.717 109.986 147.929 112.72 147.824 119.239Z" fill="#AD6359"/>
<path d="M137.195 122.298C131.669 120.557 125.736 120.156 120.012 119.825C119.986 119.825 119.961 119.836 119.943 119.854C119.924 119.873 119.914 119.898 119.914 119.924C119.914 119.95 119.924 119.975 119.943 119.994C119.961 120.012 119.986 120.023 120.012 120.023C125.713 120.284 131.477 122.077 137.155 122.571C137.188 122.571 137.221 122.559 137.246 122.537C137.271 122.516 137.288 122.485 137.293 122.452C137.298 122.419 137.291 122.385 137.273 122.357C137.255 122.328 137.227 122.308 137.195 122.298Z" fill="#263238"/>
<path d="M136.342 132.01C135.049 131.738 133.725 131.637 132.406 131.708C131.005 131.708 129.606 131.72 128.209 131.743C125.407 131.812 122.609 131.954 119.815 132.167C119.693 132.167 119.676 132.364 119.815 132.364C122.601 132.3 125.394 132.277 128.186 132.329C129.585 132.329 130.978 132.393 132.377 132.439C133.69 132.569 135.014 132.554 136.324 132.393C136.365 132.381 136.4 132.357 136.426 132.323C136.452 132.29 136.467 132.25 136.469 132.208C136.471 132.165 136.46 132.124 136.437 132.088C136.414 132.053 136.381 132.026 136.342 132.01Z" fill="#263238"/>
<path d="M134.995 143.835C133.915 143.486 132.563 143.701 131.442 143.753L127.611 143.91C125.063 143.997 122.514 144.084 119.96 144.084C119.832 144.084 119.821 144.282 119.96 144.282C122.555 144.282 125.15 144.345 127.739 144.334C129.016 144.334 130.287 144.334 131.564 144.299C132.644 144.299 134.002 144.386 135.047 143.962C135.062 143.954 135.073 143.94 135.078 143.924C135.084 143.909 135.083 143.891 135.077 143.876C135.07 143.86 135.059 143.847 135.043 143.84C135.028 143.832 135.011 143.83 134.995 143.835Z" fill="#263238"/>
<path d="M89.8844 121.683L102.406 163.229C102.406 163.229 56.8018 165.452 47.0204 158.341C40.2227 153.395 40.7858 144.09 43.8567 140.886C50.5614 133.891 89.8844 121.683 89.8844 121.683Z" fill="#EBEBEB"/>
<path d="M90.3893 161.615C88.4214 155.81 81.2291 131.894 80.0216 126.617C79.9404 126.251 80.1493 126.112 80.2887 126.478C86.6045 143.655 88.9961 155.764 90.6157 161.528C90.6506 161.685 90.4416 161.772 90.3893 161.615Z" fill="#263238"/>
<path d="M89.896 121.253C89.6464 121.201 85.252 122.339 83.8472 122.751C81.1034 123.567 78.3789 124.454 75.6738 125.41C70.2869 127.307 65.0012 129.481 59.8378 131.923L59.0657 132.294C57.1791 132.747 55.3389 133.397 53.5045 134.001C53.4523 134.001 53.5045 134.1 53.5045 134.082C54.9732 133.595 56.4651 133.211 57.957 132.817C57.1327 133.217 56.3025 133.624 55.4898 134.047C54.0444 134.796 52.6338 135.603 51.2 136.369C51.1947 136.372 51.1899 136.375 51.186 136.379C51.1821 136.383 51.1792 136.388 51.1773 136.394C51.1755 136.399 51.1749 136.405 51.1755 136.411C51.1761 136.417 51.1779 136.422 51.1808 136.427C51.1837 136.432 51.1877 136.436 51.1924 136.44C51.197 136.443 51.2024 136.445 51.208 136.447C51.2137 136.448 51.2195 136.448 51.2251 136.446C51.2307 136.445 51.236 136.442 51.2406 136.439C53.6497 135.191 56.1516 134.082 58.6245 132.956C61.0975 131.83 63.6749 130.733 66.2291 129.699C71.262 127.662 76.3936 125.839 81.5891 124.237C83.0519 123.79 84.4916 123.36 85.9893 122.942C86.7091 122.739 89.7044 121.723 89.8322 121.712C89.9019 121.819 89.9547 121.937 89.9889 122.06C90.0237 122.182 90.163 122.182 90.134 122.06C90.0863 121.783 90.0065 121.512 89.896 121.253Z" fill="#263238"/>
<path d="M96.0726 163.415C94.7491 163.322 89.8671 163.56 88.561 163.56C85.9255 163.56 83.2958 163.56 80.6604 163.513C75.3662 163.374 70.0953 162.991 64.8244 162.486C63.3673 162.347 61.9219 162.19 60.4474 162.033C58.9729 161.876 57.3882 161.76 55.8905 161.488C55.8324 161.488 55.8092 161.569 55.8905 161.58C57.2024 161.772 58.4911 162.08 59.7973 162.306C61.1034 162.532 62.4153 162.73 63.733 162.916C66.3685 163.287 69.0156 163.548 71.6685 163.769C76.9626 164.204 82.2916 164.349 87.6031 164.251C89.1008 164.222 94.691 163.99 96.1423 163.67C96.2874 163.664 96.2235 163.426 96.0726 163.415Z" fill="#263238"/>
<path d="M183.745 171.582L135.854 175.054L153.757 112L201.648 108.529L183.745 171.582Z" fill="white"/>
<path d="M187.019 171.344L139.134 174.816L157.036 111.762L204.922 108.291L187.019 171.344Z" fill="#37474F"/>
<path d="M162.122 111.402C162 111.945 161.773 112.458 161.452 112.913C161.131 113.367 160.724 113.753 160.252 114.049C159.817 114.328 159.672 113.742 160.084 113.469C160.688 113.071 161.138 112.479 161.361 111.791C161.39 111.681 161.425 111.553 161.443 111.443C161.545 111.063 161.545 110.662 161.443 110.282C161.393 110.118 161.288 109.977 161.146 109.881C161.133 109.874 161.121 109.864 161.112 109.852C161.112 109.852 161.059 109.852 161.054 109.852C161.023 109.856 160.992 109.856 160.961 109.852C160.846 109.838 160.729 109.857 160.624 109.904C160.421 109.992 160.242 110.128 160.102 110.299C159.929 110.503 159.785 110.73 159.672 110.973C159.603 111.091 159.541 111.213 159.486 111.338V111.425C159.465 111.465 159.449 111.508 159.44 111.553C159.44 111.553 159.405 111.605 159.411 111.634L158.732 111.687C158.87 111.253 159.065 110.839 159.312 110.456C159.492 110.126 159.741 109.839 160.041 109.614C160.341 109.388 160.687 109.23 161.054 109.15C161.327 109.12 161.601 109.198 161.818 109.367C162.035 109.536 162.177 109.783 162.215 110.055C162.297 110.505 162.265 110.968 162.122 111.402Z" fill="#007AFF"/>
<path d="M165.872 111.112C165.622 112.206 164.95 113.158 164.003 113.759C163.561 114.038 163.422 113.451 163.834 113.178C164.438 112.782 164.887 112.189 165.106 111.501C165.143 111.387 165.172 111.27 165.193 111.152C165.295 110.772 165.295 110.372 165.193 109.991C165.141 109.827 165.034 109.686 164.891 109.591C164.881 109.593 164.871 109.593 164.862 109.591C164.862 109.591 164.809 109.591 164.798 109.591H164.711C164.596 109.577 164.479 109.595 164.374 109.643C164.171 109.731 163.992 109.867 163.852 110.038C163.675 110.239 163.53 110.466 163.422 110.711C163.353 110.832 163.291 110.956 163.236 111.083V111.164C163.212 111.203 163.194 111.246 163.184 111.292C163.184 111.321 163.155 111.35 163.184 111.373L162.505 111.425C162.641 110.99 162.836 110.576 163.085 110.195C163.265 109.865 163.513 109.577 163.814 109.352C164.114 109.126 164.46 108.968 164.827 108.889C165.1 108.86 165.373 108.939 165.59 109.108C165.806 109.276 165.949 109.522 165.988 109.794C166.055 110.236 166.015 110.688 165.872 111.112Z" fill="#007AFF"/>
<path d="M169.599 110.856C169.348 111.953 168.674 112.907 167.724 113.509C167.288 113.782 167.143 113.196 167.555 112.929C168.16 112.532 168.611 111.94 168.832 111.251C168.832 111.141 168.902 111.019 168.919 110.909C169.018 110.528 169.018 110.128 168.919 109.748C168.872 109.583 168.767 109.441 168.623 109.347H168.588C168.588 109.347 168.542 109.347 168.53 109.347H168.438C168.325 109.33 168.21 109.346 168.107 109.394C167.902 109.481 167.721 109.617 167.578 109.788C167.406 109.993 167.261 110.219 167.149 110.462C167.079 110.578 167.027 110.706 166.963 110.833V110.915C166.943 110.955 166.927 110.998 166.917 111.042C166.917 111.071 166.888 111.1 166.917 111.123L166.237 111.176C166.373 110.741 166.568 110.326 166.818 109.945C166.998 109.616 167.246 109.329 167.547 109.105C167.847 108.88 168.193 108.723 168.559 108.645C168.832 108.613 169.106 108.69 169.323 108.858C169.54 109.026 169.683 109.273 169.72 109.545C169.785 109.985 169.743 110.435 169.599 110.856Z" fill="#007AFF"/>
<path d="M173.366 110.584C173.244 111.127 173.016 111.641 172.695 112.096C172.375 112.551 171.967 112.939 171.497 113.236C171.061 113.515 170.916 112.923 171.328 112.656C171.931 112.257 172.381 111.665 172.605 110.978C172.635 110.862 172.669 110.74 172.687 110.63C172.789 110.25 172.789 109.849 172.687 109.469C172.636 109.306 172.532 109.165 172.391 109.068H172.356C172.356 109.068 172.304 109.068 172.298 109.068H172.205C172.09 109.049 171.972 109.067 171.868 109.121C171.664 109.204 171.485 109.338 171.346 109.51C171.173 109.714 171.029 109.94 170.916 110.183C170.847 110.303 170.785 110.427 170.73 110.555V110.636C170.711 110.677 170.695 110.72 170.684 110.764C170.684 110.793 170.649 110.822 170.655 110.851L169.976 110.897C170.114 110.463 170.309 110.049 170.556 109.666C170.736 109.337 170.985 109.051 171.285 108.827C171.586 108.602 171.931 108.445 172.298 108.366C172.571 108.335 172.845 108.411 173.062 108.579C173.279 108.748 173.421 108.994 173.459 109.266C173.536 109.706 173.504 110.159 173.366 110.584Z" fill="#007AFF"/>
<path d="M177.145 110.311C176.894 111.406 176.223 112.359 175.276 112.964C174.835 113.242 174.695 112.65 175.107 112.383C175.71 111.985 176.158 111.393 176.379 110.705C176.416 110.592 176.445 110.475 176.466 110.357C176.569 109.977 176.569 109.576 176.466 109.196C176.414 109.03 176.308 108.887 176.164 108.79C176.154 108.792 176.144 108.792 176.135 108.79C176.135 108.79 176.083 108.79 176.071 108.79H175.984C175.869 108.773 175.752 108.791 175.647 108.842C175.444 108.928 175.265 109.061 175.125 109.231C174.949 109.435 174.805 109.664 174.695 109.91C174.625 110.028 174.563 110.15 174.509 110.276V110.357C174.486 110.397 174.468 110.44 174.457 110.485C174.457 110.514 174.428 110.543 174.457 110.572L173.778 110.618C173.914 110.183 174.109 109.769 174.359 109.388C174.539 109.059 174.788 108.773 175.088 108.548C175.388 108.324 175.734 108.167 176.1 108.087C176.373 108.058 176.646 108.135 176.863 108.303C177.079 108.47 177.222 108.716 177.261 108.987C177.329 109.431 177.289 109.885 177.145 110.311Z" fill="#007AFF"/>
<path d="M180.866 110.044C180.613 111.138 179.94 112.089 178.991 112.691C178.556 112.969 178.41 112.377 178.823 112.11C179.427 111.713 179.877 111.121 180.1 110.433C180.129 110.322 180.169 110.195 180.187 110.084C180.287 109.704 180.287 109.304 180.187 108.923C180.138 108.758 180.033 108.614 179.891 108.517H179.856C179.856 108.517 179.809 108.517 179.798 108.517C179.767 108.521 179.736 108.521 179.705 108.517C179.592 108.502 179.477 108.52 179.374 108.569C179.168 108.655 178.986 108.791 178.846 108.964C178.673 109.168 178.529 109.395 178.416 109.637C178.347 109.748 178.294 109.875 178.231 110.003V110.09C178.21 110.129 178.194 110.17 178.184 110.212C178.176 110.241 178.176 110.271 178.184 110.299L177.505 110.346C177.642 109.913 177.837 109.501 178.085 109.121C178.266 108.791 178.514 108.504 178.815 108.279C179.115 108.054 179.46 107.895 179.827 107.815C180.1 107.783 180.374 107.86 180.591 108.028C180.808 108.196 180.95 108.442 180.988 108.714C181.054 109.161 181.012 109.617 180.866 110.044Z" fill="#007AFF"/>
<path d="M184.61 109.771C184.489 110.314 184.261 110.827 183.941 111.282C183.62 111.736 183.212 112.122 182.741 112.418C182.306 112.697 182.16 112.11 182.573 111.837C183.176 111.439 183.627 110.848 183.85 110.16C183.879 110.05 183.914 109.922 183.931 109.812C184.034 109.431 184.034 109.031 183.931 108.651C183.881 108.487 183.777 108.345 183.635 108.25C183.621 108.243 183.609 108.233 183.6 108.221C183.6 108.221 183.548 108.221 183.542 108.221C183.511 108.225 183.48 108.225 183.449 108.221C183.334 108.207 183.218 108.225 183.112 108.273C182.909 108.361 182.73 108.497 182.59 108.668C182.416 108.871 182.271 109.098 182.16 109.341C182.092 109.46 182.03 109.582 181.975 109.707V109.794C181.954 109.835 181.936 109.878 181.922 109.922C181.922 109.922 181.893 109.974 181.922 110.003L181.243 110.055C181.382 109.621 181.577 109.208 181.824 108.825C182.004 108.495 182.252 108.208 182.553 107.983C182.853 107.757 183.198 107.599 183.565 107.519C183.839 107.489 184.113 107.567 184.33 107.736C184.546 107.905 184.689 108.152 184.726 108.424C184.801 108.876 184.761 109.339 184.61 109.771Z" fill="#007AFF"/>
<path d="M188.36 109.498C188.111 110.592 187.439 111.544 186.491 112.145C186.05 112.424 185.911 111.837 186.323 111.565C186.926 111.169 187.374 110.579 187.594 109.893C187.631 109.779 187.66 109.662 187.681 109.544C187.781 109.164 187.781 108.764 187.681 108.383C187.63 108.219 187.523 108.078 187.379 107.983C187.37 107.985 187.36 107.985 187.35 107.983C187.35 107.983 187.298 107.983 187.286 107.983H187.199C187.084 107.969 186.968 107.987 186.863 108.035C186.659 108.123 186.48 108.259 186.34 108.43C186.164 108.631 186.019 108.858 185.911 109.103C185.842 109.224 185.78 109.348 185.725 109.475V109.556C185.7 109.595 185.682 109.638 185.673 109.684C185.673 109.713 185.644 109.742 185.673 109.765L184.993 109.817C185.129 109.382 185.325 108.968 185.574 108.587C185.753 108.257 186.002 107.969 186.302 107.744C186.603 107.518 186.948 107.36 187.315 107.281C187.588 107.252 187.862 107.331 188.078 107.5C188.295 107.668 188.437 107.914 188.476 108.186C188.542 108.626 188.503 109.076 188.36 109.498Z" fill="#007AFF"/>
<path d="M192.11 109.225C191.86 110.322 191.186 111.276 190.235 111.878C189.8 112.151 189.655 111.565 190.067 111.298C190.672 110.901 191.123 110.309 191.344 109.62C191.373 109.51 191.414 109.388 191.431 109.277C191.529 108.897 191.529 108.497 191.431 108.116C191.384 107.952 191.279 107.81 191.135 107.716H191.1C191.1 107.716 191.054 107.716 191.042 107.716H190.949C190.837 107.699 190.722 107.715 190.618 107.762C190.414 107.85 190.232 107.985 190.09 108.157C189.918 108.361 189.773 108.588 189.661 108.83C189.591 108.947 189.539 109.074 189.475 109.202V109.283C189.455 109.324 189.44 109.367 189.428 109.411C189.428 109.44 189.428 109.469 189.428 109.492L188.749 109.545C188.885 109.109 189.08 108.695 189.33 108.314C189.509 107.985 189.758 107.698 190.059 107.474C190.359 107.249 190.705 107.092 191.071 107.014C191.344 106.982 191.618 107.059 191.835 107.227C192.052 107.395 192.195 107.641 192.232 107.913C192.297 108.354 192.255 108.804 192.11 109.225Z" fill="#007AFF"/>
<path d="M195.854 108.952C195.732 109.496 195.505 110.01 195.184 110.465C194.863 110.92 194.456 111.308 193.985 111.605C193.55 111.884 193.405 111.292 193.817 111.025C194.418 110.624 194.868 110.033 195.094 109.347C195.123 109.231 195.158 109.109 195.175 108.999C195.277 108.619 195.277 108.218 195.175 107.838C195.124 107.675 195.02 107.534 194.879 107.437H194.844C194.844 107.437 194.792 107.437 194.786 107.437H194.693C194.579 107.418 194.46 107.436 194.357 107.49C194.153 107.573 193.973 107.707 193.834 107.878C193.66 108.081 193.515 108.308 193.405 108.552C193.336 108.672 193.274 108.796 193.219 108.923V109.005C193.198 109.046 193.18 109.088 193.167 109.132C193.167 109.161 193.138 109.19 193.167 109.219L192.488 109.266C192.626 108.832 192.821 108.418 193.068 108.035C193.248 107.706 193.497 107.42 193.797 107.195C194.098 106.971 194.443 106.814 194.81 106.735C195.082 106.703 195.356 106.78 195.573 106.948C195.79 107.116 195.933 107.363 195.971 107.635C196.04 108.077 196 108.529 195.854 108.952Z" fill="#007AFF"/>
<path d="M199.605 108.68C199.354 109.775 198.683 110.728 197.735 111.332C197.294 111.611 197.155 111.019 197.567 110.752C198.17 110.354 198.618 109.762 198.838 109.074C198.875 108.96 198.905 108.844 198.925 108.726C199.025 108.345 199.025 107.946 198.925 107.565C198.874 107.399 198.767 107.256 198.624 107.159C198.614 107.16 198.604 107.16 198.594 107.159C198.594 107.159 198.542 107.159 198.531 107.159H198.444C198.329 107.142 198.211 107.16 198.107 107.211C197.904 107.297 197.725 107.43 197.584 107.6C197.409 107.805 197.263 108.034 197.149 108.279C197.081 108.397 197.021 108.519 196.969 108.645V108.726C196.945 108.766 196.928 108.809 196.917 108.854C196.917 108.883 196.888 108.912 196.917 108.941L196.238 108.987C196.374 108.552 196.569 108.138 196.818 107.757C196.998 107.428 197.247 107.141 197.548 106.917C197.848 106.693 198.193 106.536 198.56 106.456C198.832 106.426 199.105 106.503 199.322 106.671C199.539 106.839 199.682 107.085 199.721 107.356C199.789 107.8 199.749 108.254 199.605 108.68Z" fill="#007AFF"/>
<path d="M203.355 108.413C203.102 109.507 202.428 110.458 201.48 111.06C201.044 111.338 200.899 110.746 201.311 110.479C201.915 110.081 202.366 109.49 202.588 108.801C202.617 108.691 202.652 108.563 202.675 108.453C202.776 108.073 202.776 107.673 202.675 107.292C202.627 107.127 202.522 106.983 202.379 106.886H202.345C202.345 106.886 202.298 106.886 202.287 106.886C202.256 106.89 202.224 106.89 202.194 106.886C202.081 106.87 201.966 106.889 201.863 106.938C201.657 107.024 201.475 107.16 201.334 107.333C201.162 107.537 201.017 107.764 200.905 108.006C200.835 108.116 200.783 108.244 200.719 108.372V108.459C200.699 108.498 200.683 108.538 200.673 108.581C200.665 108.609 200.665 108.639 200.673 108.668L199.994 108.714C200.131 108.28 200.327 107.866 200.574 107.484C200.755 107.156 201.005 106.87 201.305 106.646C201.605 106.422 201.95 106.264 202.316 106.183C202.588 106.152 202.862 106.229 203.079 106.397C203.296 106.565 203.439 106.811 203.477 107.083C203.543 107.53 203.501 107.986 203.355 108.413Z" fill="#007AFF"/>
<path d="M202.565 122.466C205.102 127.65 211.406 134.076 211.969 138.308C212.144 139.351 211.978 140.423 211.496 141.364C211.014 142.305 210.242 143.065 209.293 143.533C209.293 143.533 213.571 145.605 213.444 149.547C213.374 151.578 210.077 153.25 210.077 153.25C210.077 153.25 213.426 155.061 213.101 158.562C212.834 161.348 209.572 162.625 209.572 162.625C209.572 162.625 211.975 165.847 210.814 168.581C208.428 174.166 184.39 174.444 180.576 165.632C178.794 161.528 184.668 161.778 184.668 161.778C184.668 161.778 176.309 159.38 176.123 154.423C175.938 149.465 183.554 150.255 183.554 150.255C183.554 150.255 175.473 147.857 175.798 142.708C176.141 137.345 183.623 139.434 183.623 139.434C183.623 139.434 178.236 135.87 179.392 131.981C181.296 125.56 191.507 133.49 196.807 132.178L199.622 123.43L202.565 122.466Z" fill="#AD6359"/>
<path d="M207.47 129.984C205.502 124.864 211.795 118.444 210.611 113.283C209.014 106.317 201.207 113.248 199.581 123.442L199.697 131.569L207.47 129.984Z" fill="#AD6359"/>
<path d="M209.072 162.887C209.148 162.887 209.177 162.991 209.072 163.008C201.189 165.029 191.907 164.831 184.297 161.847C184.047 161.749 184.099 161.302 184.395 161.36C192.871 162.927 200.487 163.676 209.072 162.887Z" fill="#263238"/>
<path d="M210.193 153.303C210.286 153.303 210.303 153.448 210.193 153.471C202.066 155.508 191.617 154.998 183.246 150.493C182.956 150.342 182.857 149.912 183.2 150.069C188.999 152.635 202.461 154.069 210.193 153.303Z" fill="#263238"/>
<path d="M183.095 138.924C191.286 142.929 199.93 143.91 208.968 143.637C209.084 143.637 209.078 143.8 208.968 143.829C204.585 145.164 198.815 144.74 194.351 144.026C190.196 143.445 186.265 141.786 182.95 139.214C182.822 139.109 182.95 138.842 183.095 138.924Z" fill="#263238"/>
<path d="M4.36523 209.849L33.6282 209.71L62.8911 209.657L121.417 209.559L179.943 209.657L209.206 209.71L238.469 209.849L209.206 209.994L179.943 210.04L121.417 210.139L62.8911 210.04L33.6282 209.988L4.36523 209.849Z" fill="#263238"/>
<path d="M40.2692 185.207H14.4834V223.891H40.2692V185.207Z" fill="#378164"/>
<path d="M43.3863 174.816H11.3718V185.201H43.3863V174.816Z" fill="#455A64"/>
<path d="M35.962 196.335H18.7966V213.5H35.962V196.335Z" fill="white"/>
<path opacity="0.1" d="M14.4834 185.207V188.22L29.0017 193.705V223.885H35.9619V185.207H14.4834Z" fill="black"/>
<path d="M6.47827 223.003C6.47827 222.577 6.56225 222.155 6.72539 221.762C6.88854 221.369 7.12766 221.011 7.42906 220.711C7.73046 220.41 8.08823 220.171 8.4819 220.009C8.87556 219.846 9.2974 219.763 9.72326 219.764H16.1784C16.6045 219.763 17.0267 219.846 17.4207 220.009C17.8146 220.171 18.1728 220.409 18.4747 220.71C18.7765 221.011 19.0162 221.368 19.18 221.762C19.3438 222.155 19.4284 222.577 19.4292 223.003C19.4277 223.864 19.0845 224.69 18.475 225.298C17.8655 225.906 17.0396 226.248 16.1784 226.248H9.74648C9.31861 226.25 8.89448 226.168 8.49845 226.006C8.10241 225.844 7.74225 225.606 7.43861 225.304C7.13498 225.003 6.89385 224.644 6.72905 224.249C6.56425 223.854 6.47903 223.431 6.47827 223.003Z" fill="#455A64"/>
<path d="M6.47828 223.003C6.47828 222.577 6.56225 222.155 6.7254 221.762C6.88855 221.369 7.12766 221.011 7.42906 220.711C7.73046 220.41 8.08824 220.171 8.4819 220.009C8.87557 219.846 9.2974 219.763 9.72327 219.764H12.945V226.26H9.74649C9.31763 226.262 8.89256 226.179 8.49577 226.017C8.09897 225.854 7.73829 225.614 7.4345 225.312C7.13071 225.009 6.88982 224.649 6.72571 224.253C6.5616 223.857 6.4775 223.432 6.47828 223.003Z" fill="#378164"/>
<path d="M50.5964 223.003C50.5956 223.429 50.5109 223.851 50.3472 224.244C50.1834 224.638 49.9437 224.995 49.6418 225.296C49.34 225.597 48.9818 225.835 48.5878 225.997C48.1938 226.16 47.7717 226.243 47.3456 226.242H40.9427C40.5166 226.243 40.0944 226.16 39.7004 225.997C39.3065 225.835 38.9483 225.597 38.6464 225.296C38.3446 224.995 38.1049 224.638 37.9411 224.244C37.7773 223.851 37.6927 223.429 37.6919 223.003C37.6919 222.141 38.0344 221.314 38.644 220.704C39.2537 220.095 40.0805 219.752 40.9427 219.752H47.3688C48.2269 219.758 49.0478 220.104 49.6525 220.713C50.2571 221.321 50.5964 222.145 50.5964 223.003Z" fill="#455A64"/>
<path d="M50.5964 223.003C50.5956 223.429 50.5109 223.851 50.3471 224.244C50.1834 224.638 49.9437 224.995 49.6418 225.296C49.34 225.597 48.9818 225.835 48.5878 225.997C48.1938 226.16 47.7717 226.243 47.3456 226.242H44.1528V219.752H47.3688C48.2269 219.758 49.0478 220.104 49.6525 220.713C50.2571 221.321 50.5964 222.145 50.5964 223.003Z" fill="#378164"/>
<path d="M57.9162 224.309C57.6154 224.611 57.258 224.85 56.8645 225.013C56.471 225.176 56.0492 225.26 55.6233 225.26C55.1973 225.26 54.7755 225.176 54.382 225.013C53.9886 224.85 53.6312 224.611 53.3303 224.309L48.7792 219.764C48.1716 219.155 47.8303 218.331 47.8303 217.471C47.8303 216.611 48.1716 215.786 48.7792 215.178C49.3896 214.57 50.2162 214.228 51.078 214.228C51.9397 214.228 52.7663 214.57 53.3767 215.178L57.922 219.723C58.5274 220.333 58.8667 221.158 58.8656 222.017C58.8645 222.877 58.5232 223.701 57.9162 224.309Z" fill="#455A64"/>
<path d="M57.9162 224.309C57.6153 224.611 57.2579 224.85 56.8644 225.013C56.471 225.176 56.0492 225.26 55.6232 225.26C55.1972 225.26 54.7754 225.176 54.382 225.013C53.9885 224.85 53.6311 224.611 53.3303 224.309L51.0547 222.034L55.6464 217.442L57.922 219.717C58.5292 220.328 58.8695 221.154 58.8684 222.014C58.8674 222.875 58.5249 223.7 57.9162 224.309Z" fill="#378164"/>
<path d="M28.5024 229.499C28.5032 229.073 28.5879 228.651 28.7517 228.257C28.9155 227.864 29.1551 227.507 29.457 227.206C29.7588 226.905 30.117 226.667 30.511 226.504C30.905 226.342 31.3271 226.259 31.7532 226.26H38.1794C38.6055 226.259 39.0276 226.342 39.4216 226.504C39.8156 226.667 40.1737 226.905 40.4756 227.206C40.7775 227.507 41.0171 227.864 41.1809 228.257C41.3447 228.651 41.4294 229.073 41.4301 229.499C41.4286 230.36 41.0854 231.185 40.476 231.794C39.8665 232.402 39.0405 232.744 38.1794 232.744H31.7532C30.8921 232.744 30.0661 232.402 29.4566 231.794C28.8471 231.185 28.504 230.36 28.5024 229.499Z" fill="#455A64"/>
<path d="M28.5024 229.499C28.5032 229.073 28.5879 228.651 28.7517 228.257C28.9155 227.864 29.1551 227.507 29.457 227.206C29.7588 226.905 30.117 226.667 30.511 226.504C30.905 226.342 31.3271 226.259 31.7532 226.26H34.9692V232.755H31.7532C31.3259 232.755 30.9027 232.671 30.5079 232.507C30.1131 232.344 29.7545 232.104 29.4525 231.801C29.1506 231.499 28.9113 231.14 28.7482 230.745C28.5852 230.35 28.5017 229.926 28.5024 229.499Z" fill="#378164"/>
<path d="M161.565 222.388L161.402 224.663C161.402 224.698 161.402 224.739 161.402 224.779C161.28 225.499 160.462 226.097 159.237 226.469C157.932 226.832 156.577 226.973 155.225 226.887L154.645 226.846C154.448 226.846 154.244 226.811 154.064 226.782C150.965 226.381 148.677 225.104 148.77 223.775L148.927 221.505C148.834 222.835 151.121 224.112 154.221 224.512L154.802 224.57C154.999 224.57 155.202 224.605 155.382 224.611C156.733 224.7 158.09 224.559 159.393 224.193C160.618 223.827 161.431 223.235 161.559 222.51C161.559 222.463 161.559 222.434 161.565 222.388Z" fill="#DBDBDB"/>
<path d="M151.081 219.7C152.381 219.337 153.733 219.196 155.08 219.282L154.192 224.506C154.384 224.506 154.587 224.553 154.773 224.565C154.958 224.576 155.167 224.599 155.353 224.611L156.241 219.386C159.434 219.793 161.762 221.128 161.524 222.504C161.408 223.229 160.589 223.821 159.364 224.199C158.06 224.562 156.704 224.703 155.353 224.617C155.156 224.617 154.953 224.617 154.773 224.57C154.593 224.524 154.372 224.536 154.192 224.512C150.999 224.106 148.672 222.771 148.91 221.395C149.031 220.669 149.862 220.071 151.081 219.7Z" fill="white"/>
<path d="M155.086 219.282L155.666 219.323L156.247 219.386L155.359 224.611C155.161 224.611 154.958 224.611 154.778 224.565C154.598 224.518 154.378 224.53 154.198 224.506L155.086 219.282Z" fill="#DBDBDB"/>
<path d="M161.205 226.579V228.854C161.202 228.893 161.202 228.932 161.205 228.971C161.268 229.696 162.04 230.364 163.225 230.828C164.496 231.295 165.836 231.544 167.189 231.565H167.77C167.967 231.565 168.171 231.565 168.35 231.565C171.474 231.414 173.859 230.323 173.871 228.988V226.712C173.871 228.042 171.474 229.133 168.35 229.29H167.77C167.577 229.301 167.383 229.301 167.189 229.29C165.836 229.27 164.496 229.023 163.225 228.558C162.029 228.094 161.268 227.432 161.205 226.701C161.201 226.66 161.201 226.619 161.205 226.579Z" fill="#DBDBDB"/>
<path d="M171.874 224.733C170.605 224.266 169.267 224.017 167.915 223.996L168.385 229.278C168.188 229.278 167.985 229.278 167.805 229.278H167.224L166.754 223.996C163.538 224.147 161.112 225.296 161.239 226.678C161.303 227.415 162.07 228.071 163.26 228.541C164.53 229.007 165.871 229.257 167.224 229.278H167.805C168.002 229.278 168.205 229.278 168.385 229.278C171.596 229.127 174.028 227.978 173.9 226.596C173.836 225.859 173.082 225.203 171.874 224.733Z" fill="white"/>
<path d="M167.915 223.996H167.335C167.137 223.996 166.944 223.996 166.754 223.996L167.224 229.278H167.805C168.002 229.278 168.205 229.278 168.385 229.278L167.915 223.996Z" fill="#DBDBDB"/>
<path d="M144.248 225.847C142.861 226.632 141.307 227.074 139.714 227.136C138.353 227.229 136.987 227.021 135.715 226.527C135.575 226.469 135.43 226.393 135.291 226.323C135.152 226.254 135.024 226.173 134.902 226.091C134.555 225.895 134.258 225.622 134.034 225.293C133.809 224.964 133.664 224.587 133.608 224.193L133.399 222.121C133.459 222.52 133.61 222.899 133.842 223.23C134.074 223.56 134.379 223.832 134.734 224.025C134.85 224.098 134.978 224.174 135.117 224.251C135.252 224.327 135.392 224.395 135.535 224.454C136.807 224.949 138.173 225.157 139.534 225.064C141.125 225.002 142.679 224.565 144.068 223.787C145.479 222.939 146.141 221.865 146.036 220.884L146.245 222.957C146.32 223.932 145.659 225.006 144.248 225.847Z" fill="#DBDBDB"/>
<path d="M135.512 224.454L135.628 225.662L144.057 220.606L143.853 218.533L134.693 224.025C134.803 224.1 134.937 224.176 135.076 224.251C135.216 224.327 135.349 224.39 135.512 224.454Z" fill="#007AFF"/>
<path d="M143.865 218.533C144.01 218.597 144.155 218.661 144.295 218.736C144.434 218.812 144.556 218.881 144.678 218.963L135.512 224.454C135.361 224.39 135.227 224.327 135.088 224.251C134.949 224.176 134.815 224.1 134.705 224.025L143.865 218.533Z" fill="#DBDBDB"/>
<path d="M144.678 218.963L144.887 221.029L135.715 226.521L135.512 224.454L144.678 218.963Z" fill="#DBDBDB"/>
<path d="M139.865 217.924C141.227 217.832 142.592 218.04 143.865 218.533L134.705 224.025C134.815 224.1 134.949 224.176 135.088 224.251C135.227 224.327 135.361 224.39 135.512 224.454L144.678 218.963C146.675 220.251 146.419 222.347 144.039 223.781C142.652 224.56 141.101 225 139.511 225.064C138.15 225.155 136.784 224.947 135.512 224.454C135.361 224.39 135.227 224.327 135.088 224.251C134.949 224.176 134.815 224.1 134.705 224.025C132.708 222.73 132.963 220.64 135.343 219.207C136.728 218.428 138.278 217.989 139.865 217.924Z" fill="white"/>
<path d="M177.755 224.176C179.14 224.959 180.692 225.401 182.282 225.464C183.646 225.558 185.014 225.35 186.288 224.855C186.427 224.797 186.572 224.721 186.712 224.652C186.851 224.582 186.979 224.501 187.095 224.419C187.448 224.227 187.751 223.956 187.982 223.626C188.213 223.297 188.364 222.919 188.424 222.521L188.633 220.449C188.572 220.848 188.42 221.227 188.189 221.557C187.957 221.888 187.652 222.16 187.298 222.353C187.182 222.426 187.054 222.502 186.915 222.579C186.78 222.655 186.64 222.723 186.497 222.782C185.223 223.278 183.855 223.486 182.491 223.392C180.902 223.333 179.35 222.895 177.964 222.115C176.553 221.267 175.891 220.193 175.99 219.212L175.781 221.285C175.682 222.266 176.344 223.334 177.755 224.176Z" fill="#DBDBDB"/>
<path d="M186.491 222.782L186.369 223.99L177.929 218.934L178.138 216.867L187.298 222.353C187.175 222.435 187.047 222.511 186.915 222.579C186.776 222.655 186.636 222.719 186.491 222.782Z" fill="#007AFF"/>
<path d="M178.138 216.867C177.993 216.925 177.847 216.995 177.708 217.064C177.569 217.134 177.447 217.21 177.319 217.291L186.491 222.782C186.636 222.719 186.776 222.655 186.915 222.579C187.047 222.511 187.175 222.435 187.298 222.353L178.138 216.867Z" fill="#DBDBDB"/>
<path d="M177.325 217.291L177.116 219.357L186.288 224.849L186.491 222.782L177.325 217.291Z" fill="#DBDBDB"/>
<path d="M182.132 216.258C180.771 216.161 179.407 216.369 178.138 216.867L187.298 222.353C187.175 222.435 187.047 222.511 186.915 222.579C186.776 222.655 186.636 222.719 186.491 222.782L177.319 217.291C175.328 218.585 175.578 220.675 177.964 222.109C179.35 222.888 180.902 223.328 182.491 223.392C183.853 223.489 185.22 223.281 186.491 222.782C186.636 222.719 186.776 222.655 186.915 222.579C187.047 222.511 187.175 222.435 187.298 222.353C189.295 221.058 189.039 218.968 186.659 217.535C185.273 216.755 183.721 216.317 182.132 216.258Z" fill="white"/>
<path d="M139.146 216.414L139.117 218.823C139.109 218.981 139.043 219.13 138.931 219.241C138.513 219.717 137.445 220.095 136.057 220.309C134.656 220.513 133.239 220.577 131.825 220.501L131.245 220.46L130.664 220.402C128.075 220.118 126.386 219.41 126.392 218.661L126.427 216.263C126.427 217.006 128.116 217.715 130.699 218.005C130.879 218.034 131.082 218.051 131.28 218.063L131.86 218.109C133.274 218.191 134.692 218.127 136.092 217.918C137.474 217.697 138.548 217.337 138.995 216.844C139.099 216.726 139.153 216.572 139.146 216.414Z" fill="#DBDBDB"/>
<path d="M131.286 218.057L131.251 220.46L130.67 220.402L130.699 217.999L131.286 218.057Z" fill="#DBDBDB"/>
<path d="M133.73 214.574L134.31 214.615C134.507 214.615 134.701 214.632 134.891 214.667L131.872 218.092L131.291 218.057L130.711 217.999L133.73 214.574Z" fill="#DBDBDB"/>
<path d="M134.885 214.667L134.85 217.07L131.831 220.501L131.866 218.092L134.885 214.667Z" fill="#DBDBDB"/>
<path d="M129.509 214.76C130.906 214.553 132.32 214.49 133.73 214.574L130.705 217.999L131.286 218.057L131.866 218.092L134.885 214.667C137.944 215.004 139.755 215.944 138.948 216.838C138.53 217.314 137.462 217.686 136.046 217.906C134.649 218.113 133.235 218.176 131.826 218.092L131.245 218.057L130.665 217.999C127.6 217.662 125.794 216.728 126.601 215.828C127.048 215.352 128.116 214.98 129.509 214.76Z" fill="white"/>
<path d="M154.836 216.6L154.871 219.003C154.872 219.082 154.889 219.16 154.921 219.231C154.953 219.303 154.999 219.368 155.057 219.421C155.475 219.897 156.543 220.275 157.93 220.495C159.329 220.699 160.745 220.763 162.157 220.687L162.737 220.64C162.923 220.64 163.12 220.611 163.318 220.582C165.907 220.298 167.596 219.59 167.584 218.841V216.438C167.584 217.186 165.895 217.895 163.312 218.179L162.731 218.237L162.151 218.278C160.739 218.365 159.322 218.301 157.925 218.086C156.537 217.871 155.469 217.506 155.051 217.018C154.988 216.967 154.937 216.904 154.9 216.832C154.863 216.76 154.841 216.681 154.836 216.6Z" fill="#DBDBDB"/>
<path d="M162.708 218.237L162.737 220.64C162.929 220.64 163.126 220.606 163.318 220.588L163.283 218.185L162.708 218.237Z" fill="#DBDBDB"/>
<path d="M160.258 214.754L159.678 214.795L159.097 214.847L162.116 218.278L162.696 218.237L163.277 218.185L160.258 214.754Z" fill="#DBDBDB"/>
<path d="M159.103 214.847L159.132 217.256L162.156 220.681L162.122 218.278L159.103 214.847Z" fill="#DBDBDB"/>
<path d="M164.473 214.94C163.078 214.736 161.666 214.673 160.258 214.754L163.277 218.185L162.696 218.237L162.116 218.278L159.097 214.847C156.032 215.189 154.227 216.124 155.034 217.018C155.452 217.494 156.52 217.871 157.907 218.086C159.306 218.295 160.722 218.36 162.133 218.278L162.714 218.237L163.294 218.185C166.365 217.848 168.17 216.908 167.358 216.014C166.94 215.538 165.866 215.16 164.473 214.94Z" fill="white"/>
<path d="M140.202 228.454L140.231 230.863C140.232 230.942 140.249 231.019 140.281 231.091C140.313 231.163 140.359 231.227 140.417 231.281C140.835 231.757 141.903 232.128 143.29 232.349C144.689 232.553 146.105 232.617 147.516 232.541L148.097 232.5L148.677 232.442C151.266 232.157 152.956 231.443 152.95 230.7L152.915 228.303C152.915 229.046 151.226 229.754 148.643 230.044L148.062 230.102L147.482 230.143C146.068 230.231 144.649 230.167 143.25 229.952C141.862 229.737 140.794 229.371 140.376 228.883C140.264 228.769 140.201 228.614 140.202 228.454Z" fill="#DBDBDB"/>
<path d="M148.068 230.114L148.103 232.523L148.683 232.465L148.648 230.062L148.068 230.114Z" fill="#DBDBDB"/>
<path d="M145.618 226.631L145.038 226.672L144.457 226.73L147.476 230.155L148.056 230.114L148.637 230.062L145.618 226.631Z" fill="#DBDBDB"/>
<path d="M144.463 226.707L144.492 229.11L147.516 232.535L147.481 230.131L144.463 226.707Z" fill="#DBDBDB"/>
<path d="M149.862 226.799C148.465 226.59 147.051 226.526 145.641 226.608L148.66 230.039L148.079 230.091L147.499 230.132L144.48 226.707C141.421 227.043 139.61 227.978 140.417 228.878C140.835 229.348 141.903 229.725 143.29 229.946C144.689 230.15 146.105 230.212 147.516 230.132L148.097 230.091L148.677 230.039C151.748 229.702 153.554 228.762 152.741 227.868C152.3 227.392 151.226 227.02 149.862 226.799Z" fill="white"/>
<path d="M201.096 176.012H221.211C222.516 176.012 223.768 176.53 224.691 177.453C225.615 178.377 226.133 179.629 226.133 180.934V225.203C226.133 225.691 225.939 226.159 225.594 226.504C225.249 226.849 224.781 227.043 224.293 227.043H198.043C197.555 227.043 197.087 226.849 196.742 226.504C196.397 226.159 196.203 225.691 196.203 225.203V180.928C196.204 179.629 196.72 178.383 197.636 177.462C198.553 176.541 199.797 176.019 201.096 176.012Z" fill="#5BD6A6"/>
<path d="M219.829 169.533H202.484V177.48H219.829V169.533Z" fill="#5BD6A6"/>
<path d="M226.133 192.631H196.18V212.827H226.133V192.631Z" fill="#EBEBEB"/>
<path d="M226.133 208.7H196.18V210.528H226.133V208.7Z" fill="#455A64"/>
<path d="M226.133 194.936H196.18V196.764H226.133V194.936Z" fill="#455A64"/>
<path d="M221.037 163.972H201.276V171.333H221.037V163.972Z" fill="#455A64"/>
<path d="M222.07 171.327H200.237V173.504H222.07V171.327Z" fill="#37474F"/>
<path d="M202.855 165H202.6C202.42 165 202.275 165.145 202.275 165.325V169.98C202.275 170.16 202.42 170.305 202.6 170.305H202.855C203.035 170.305 203.18 170.16 203.18 169.98V165.325C203.18 165.145 203.035 165 202.855 165Z" fill="#37474F"/>
<path d="M204.539 165H204.283C204.104 165 203.958 165.145 203.958 165.325V169.98C203.958 170.16 204.104 170.305 204.283 170.305H204.539C204.718 170.305 204.864 170.16 204.864 169.98V165.325C204.864 165.145 204.718 165 204.539 165Z" fill="#37474F"/>
<path d="M205.967 165H206.228C206.313 165 206.394 165.033 206.454 165.093C206.514 165.153 206.547 165.234 206.547 165.319V169.963C206.547 170.049 206.513 170.132 206.452 170.193C206.391 170.254 206.309 170.288 206.222 170.288H205.961C205.875 170.288 205.792 170.254 205.731 170.193C205.67 170.132 205.636 170.049 205.636 169.963V165.319C205.637 165.276 205.646 165.234 205.663 165.195C205.68 165.156 205.705 165.12 205.735 165.091C205.766 165.061 205.802 165.038 205.842 165.022C205.882 165.006 205.924 164.999 205.967 165Z" fill="#37474F"/>
<path d="M207.911 165H207.656C207.476 165 207.331 165.145 207.331 165.325V169.98C207.331 170.16 207.476 170.305 207.656 170.305H207.911C208.091 170.305 208.237 170.16 208.237 169.98V165.325C208.237 165.145 208.091 165 207.911 165Z" fill="#37474F"/>
<path d="M209.601 165H209.345C209.166 165 209.02 165.145 209.02 165.325V169.98C209.02 170.16 209.166 170.305 209.345 170.305H209.601C209.78 170.305 209.926 170.16 209.926 169.98V165.325C209.926 165.145 209.78 165 209.601 165Z" fill="#37474F"/>
<path d="M211.023 165H211.284C211.37 165 211.453 165.034 211.514 165.095C211.575 165.156 211.609 165.238 211.609 165.325V169.969C211.609 170.055 211.575 170.138 211.514 170.199C211.453 170.259 211.37 170.294 211.284 170.294H211.023C210.938 170.294 210.857 170.26 210.797 170.2C210.737 170.14 210.704 170.059 210.704 169.974V165.33C210.703 165.288 210.711 165.245 210.726 165.206C210.742 165.166 210.765 165.13 210.795 165.099C210.824 165.068 210.86 165.044 210.899 165.027C210.938 165.009 210.98 165 211.023 165Z" fill="#37474F"/>
<path d="M212.968 165H212.712C212.533 165 212.387 165.145 212.387 165.325V169.98C212.387 170.16 212.533 170.305 212.712 170.305H212.968C213.147 170.305 213.293 170.16 213.293 169.98V165.325C213.293 165.145 213.147 165 212.968 165Z" fill="#37474F"/>
<path d="M214.657 165H214.401C214.222 165 214.076 165.145 214.076 165.325V169.98C214.076 170.16 214.222 170.305 214.401 170.305H214.657C214.836 170.305 214.982 170.16 214.982 169.98V165.325C214.982 165.145 214.836 165 214.657 165Z" fill="#37474F"/>
<path d="M216.085 165H216.346C216.432 165 216.515 165.034 216.576 165.095C216.637 165.156 216.671 165.238 216.671 165.325V169.969C216.671 170.055 216.637 170.138 216.576 170.199C216.515 170.259 216.432 170.294 216.346 170.294H216.085C216 170.294 215.919 170.26 215.859 170.2C215.799 170.14 215.766 170.059 215.766 169.974V165.33C215.765 165.288 215.772 165.245 215.788 165.206C215.804 165.166 215.827 165.13 215.857 165.099C215.886 165.068 215.922 165.044 215.961 165.027C216 165.009 216.042 165 216.085 165Z" fill="#37474F"/>
<path d="M218.024 165H217.768C217.589 165 217.443 165.145 217.443 165.325V169.98C217.443 170.16 217.589 170.305 217.768 170.305H218.024C218.203 170.305 218.349 170.16 218.349 169.98V165.325C218.349 165.145 218.203 165 218.024 165Z" fill="#37474F"/>
<path d="M219.713 165H219.458C219.278 165 219.133 165.145 219.133 165.325V169.98C219.133 170.16 219.278 170.305 219.458 170.305H219.713C219.893 170.305 220.038 170.16 220.038 169.98V165.325C220.038 165.145 219.893 165 219.713 165Z" fill="#37474F"/>
<path d="M76.3591 239.194L76.5265 222.366L74.3033 222.344L74.1359 239.172L76.3591 239.194Z" fill="#007AFF"/>
<path opacity="0.1" d="M76.3591 239.194L76.5265 222.366L74.3033 222.344L74.1359 239.172L76.3591 239.194Z" fill="black"/>
<path d="M61.2863 236.071L61.3888 225.767L59.1656 225.745L59.0631 236.048L61.2863 236.071Z" fill="#007AFF"/>
<path opacity="0.1" d="M61.2863 236.071L61.3888 225.767L59.1656 225.745L59.0631 236.048L61.2863 236.071Z" fill="black"/>
<path d="M74.1976 233.772L74.252 228.304L61.3655 228.175L61.3111 233.643L74.1976 233.772Z" fill="#007AFF"/>
<path opacity="0.2" d="M72.1096 233.748L72.8701 228.286L74.2459 228.303L74.1878 233.765L72.1096 233.748Z" fill="black"/>
<path d="M123.693 231.275C125.928 231.223 128.163 231.211 130.403 231.2H137.108L143.813 231.31L147.162 231.397C148.283 231.438 149.397 231.467 150.518 231.525C149.397 231.554 148.283 231.56 147.162 231.583H143.807H137.102L130.398 231.472C128.163 231.409 125.928 231.351 123.693 231.275Z" fill="#263238"/>
<path d="M122.096 237.265L122.215 225.22L76.5034 224.765L76.3836 236.81L122.096 237.265Z" fill="#007AFF"/>
<path opacity="0.6" d="M122.096 237.265L122.215 225.22L76.5034 224.765L76.3836 236.81L122.096 237.265Z" fill="white"/>
<path d="M122.112 235.681L122.201 226.806L78.6538 226.372L78.5655 235.248L122.112 235.681Z" fill="#007AFF"/>
<path d="M117.467 227.874L117.489 225.633L117.222 225.63L117.2 227.871L117.467 227.874Z" fill="#263238"/>
<path d="M116.576 227.88L116.598 225.639L116.331 225.636L116.309 227.877L116.576 227.88Z" fill="#263238"/>
<path d="M115.674 227.868L115.696 225.628L115.429 225.625L115.406 227.866L115.674 227.868Z" fill="#263238"/>
<path d="M114.777 227.863L114.799 225.622L114.532 225.619L114.51 227.86L114.777 227.863Z" fill="#263238"/>
<path d="M113.861 229.486L113.899 225.602L113.632 225.6L113.594 229.483L113.861 229.486Z" fill="#263238"/>
<path d="M113.024 227.845L113.046 225.605L112.779 225.602L112.757 227.843L113.024 227.845Z" fill="#263238"/>
<path d="M112.122 227.834L112.144 225.593L111.877 225.591L111.854 227.831L112.122 227.834Z" fill="#263238"/>
<path d="M111.225 227.817L111.247 225.576L110.98 225.573L110.958 227.814L111.225 227.817Z" fill="#263238"/>
<path d="M110.309 227.805L110.331 225.564L110.064 225.561L110.042 227.802L110.309 227.805Z" fill="#263238"/>
<path d="M109.406 229.446L109.445 225.562L109.178 225.56L109.139 229.443L109.406 229.446Z" fill="#263238"/>
<path d="M108.575 227.8L108.597 225.559L108.33 225.556L108.308 227.797L108.575 227.8Z" fill="#263238"/>
<path d="M107.667 227.777L107.689 225.536L107.422 225.533L107.4 227.774L107.667 227.777Z" fill="#263238"/>
<path d="M106.77 227.771L106.792 225.53L106.525 225.528L106.503 227.768L106.77 227.771Z" fill="#263238"/>
<path d="M105.874 227.777L105.896 225.536L105.629 225.534L105.607 227.774L105.874 227.777Z" fill="#263238"/>
<path d="M104.957 229.406L104.996 225.522L104.729 225.52L104.69 229.403L104.957 229.406Z" fill="#263238"/>
<path d="M104.121 227.754L104.143 225.513L103.876 225.511L103.854 227.751L104.121 227.754Z" fill="#263238"/>
<path d="M103.218 227.737L103.24 225.496L102.973 225.493L102.951 227.734L103.218 227.737Z" fill="#263238"/>
<path d="M102.321 227.737L102.344 225.496L102.077 225.493L102.054 227.734L102.321 227.737Z" fill="#263238"/>
<path d="M101.419 227.714L101.441 225.473L101.174 225.47L101.152 227.711L101.419 227.714Z" fill="#263238"/>
<path d="M100.509 229.354L100.547 225.471L100.28 225.468L100.242 229.352L100.509 229.354Z" fill="#263238"/>
<path d="M99.6659 227.708L99.6882 225.467L99.4212 225.465L99.3989 227.705L99.6659 227.708Z" fill="#263238"/>
<path d="M98.7635 227.691L98.7858 225.45L98.5188 225.447L98.4965 227.688L98.7635 227.691Z" fill="#263238"/>
<path d="M97.8726 227.691L97.8949 225.45L97.6279 225.448L97.6056 227.688L97.8726 227.691Z" fill="#263238"/>
<path d="M96.9703 227.668L96.9926 225.427L96.7255 225.425L96.7033 227.665L96.9703 227.668Z" fill="#263238"/>
<path d="M96.054 229.314L96.0927 225.431L95.8256 225.428L95.787 229.311L96.054 229.314Z" fill="#263238"/>
<path d="M95.2171 227.662L95.2394 225.422L94.9724 225.419L94.9501 227.66L95.2171 227.662Z" fill="#263238"/>
<path d="M94.3205 227.657L94.3428 225.416L94.0757 225.413L94.0535 227.654L94.3205 227.657Z" fill="#263238"/>
<path d="M93.4239 227.645L93.4462 225.405L93.1792 225.402L93.1569 227.642L93.4239 227.645Z" fill="#263238"/>
<path d="M92.5157 227.628L92.538 225.387L92.2709 225.385L92.2486 227.625L92.5157 227.628Z" fill="#263238"/>
<path d="M91.6052 229.274L91.6438 225.391L91.3768 225.388L91.3382 229.272L91.6052 229.274Z" fill="#263238"/>
<path d="M90.7625 227.611L90.7848 225.37L90.5178 225.367L90.4955 227.608L90.7625 227.611Z" fill="#263238"/>
<path d="M89.8659 227.605L89.8882 225.364L89.6212 225.362L89.5989 227.602L89.8659 227.605Z" fill="#263238"/>
<path d="M88.9635 227.594L88.9858 225.353L88.7188 225.35L88.6965 227.591L88.9635 227.594Z" fill="#263238"/>
<path d="M88.0668 227.588L88.0891 225.347L87.8221 225.345L87.7998 227.585L88.0668 227.588Z" fill="#263238"/>
<path d="M87.1564 229.223L87.1951 225.339L86.9281 225.337L86.8894 229.22L87.1564 229.223Z" fill="#263238"/>
<path d="M86.3138 227.571L86.3361 225.33L86.069 225.327L86.0468 227.568L86.3138 227.571Z" fill="#263238"/>
<path d="M85.4113 227.559L85.4336 225.319L85.1666 225.316L85.1443 227.557L85.4113 227.559Z" fill="#263238"/>
<path d="M84.5088 227.542L84.5311 225.301L84.2641 225.299L84.2418 227.539L84.5088 227.542Z" fill="#263238"/>
<path d="M83.6181 227.554L83.6404 225.313L83.3734 225.31L83.3511 227.551L83.6181 227.554Z" fill="#263238"/>
<path d="M82.696 229.177L82.7346 225.293L82.4676 225.291L82.429 229.174L82.696 229.177Z" fill="#263238"/>
<path d="M81.8592 227.525L81.8815 225.284L81.6144 225.282L81.5921 227.522L81.8592 227.525Z" fill="#263238"/>
<path d="M80.9626 227.525L80.9849 225.284L80.7179 225.282L80.6956 227.522L80.9626 227.525Z" fill="#263238"/>
<path d="M80.0658 227.508L80.0881 225.267L79.8211 225.265L79.7988 227.505L80.0658 227.508Z" fill="#263238"/>
<path d="M79.1635 227.508L79.1858 225.267L78.9188 225.265L78.8965 227.505L79.1635 227.508Z" fill="#263238"/>
<path d="M78.2471 229.137L78.2858 225.254L78.0188 225.251L77.9801 229.134L78.2471 229.137Z" fill="#263238"/>
<path d="M122.096 237.26L122.215 225.216L118.767 225.181L118.648 237.226L122.096 237.26Z" fill="#263238"/>
<path d="M126.066 235.353L126.147 227.214L122.2 227.175L122.119 235.313L126.066 235.353Z" fill="#007AFF"/>
<path d="M130.821 232.366L130.839 230.271L126.113 229.847L126.084 232.697L130.821 232.366Z" fill="#007AFF"/>
<path opacity="0.1" d="M126.084 232.697L126.113 229.853L127.454 229.969L127.222 232.616L126.084 232.697Z" fill="black"/>
</svg>
